<svg xmlns="http://www.w3.org/2000/svg" xmlns:xlink="http://www.w3.org/1999/xlink" width="64" zoomAndPan="magnify" viewBox="0 0 48 48" height="64" preserveAspectRatio="xMidYMid meet" version="1.0"><defs><clipPath id="a61e17c599"><path d="M 0.488281 0 L 47.507812 0 L 47.507812 47.019531 L 0.488281 47.019531 Z M 0.488281 0 " clip-rule="nonzero"/></clipPath><clipPath id="6212964abf"><path d="M 7.835938 0 L 40.164062 0 C 42.113281 0 43.980469 0.773438 45.359375 2.152344 C 46.734375 3.53125 47.511719 5.398438 47.511719 7.347656 L 47.511719 39.671875 C 47.511719 41.621094 46.734375 43.492188 45.359375 44.867188 C 43.980469 46.246094 42.113281 47.019531 40.164062 47.019531 L 7.835938 47.019531 C 5.886719 47.019531 4.019531 46.246094 2.640625 44.867188 C 1.265625 43.492188 0.488281 41.621094 0.488281 39.671875 L 0.488281 7.347656 C 0.488281 5.398438 1.265625 3.53125 2.640625 2.152344 C 4.019531 0.773438 5.886719 0 7.835938 0 Z M 7.835938 0 " clip-rule="nonzero"/></clipPath><clipPath id="bb871c6339"><path d="M 11.386719 24 L 18 24 L 18 36.789062 L 11.386719 36.789062 Z M 11.386719 24 " clip-rule="nonzero"/></clipPath><clipPath id="c9b1a881ed"><path d="M 22.34375 14.300781 L 36.363281 14.300781 L 36.363281 34.34375 L 22.34375 34.34375 Z M 22.34375 14.300781 " clip-rule="nonzero"/></clipPath><clipPath id="1f08c0b165"><path d="M 17 10.339844 L 27 10.339844 L 27 20 L 17 20 Z M 17 10.339844 " clip-rule="nonzero"/></clipPath></defs><g clip-path="url(#a61e17c599)"><g clip-path="url(#6212964abf)"><path fill="#ff766e" d="M 0.488281 0 L 47.511719 0 L 47.511719 47.019531 L 0.488281 47.019531 Z M 0.488281 0 " fill-opacity="1" fill-rule="nonzero"/></g></g><g clip-path="url(#bb871c6339)"><path fill="#000000" d="M 15.546875 28.402344 L 14.78125 30.753906 L 14.277344 30.789062 L 13.964844 31.75 L 13.398438 31.789062 L 13.054688 32.839844 L 13.488281 33.210938 L 13.042969 34.585938 L 13.253906 35.171875 L 12.289062 36.46875 C 12.28125 36.480469 12.269531 36.488281 12.253906 36.488281 C 12.242188 36.484375 11.722656 36.3125 11.722656 36.3125 C 11.703125 36.304688 11.691406 36.289062 11.691406 36.269531 L 11.679688 34.644531 L 12.1875 34.300781 L 12.617188 32.984375 L 12.167969 32.601562 L 12.929688 30.25 L 13.515625 30.210938 L 13.789062 29.371094 L 13.339844 28.988281 L 13.667969 27.972656 L 14.253906 27.933594 L 15.027344 25.546875 L 15.882812 25.832031 L 15.15625 28.070312 Z M 17.066406 25.246094 L 14.503906 24.390625 C 14.441406 24.371094 14.382812 24.347656 14.324219 24.320312 L 11.503906 33.011719 C 11.433594 33.234375 11.398438 33.464844 11.398438 33.699219 L 11.421875 36.269531 C 11.421875 36.410156 11.507812 36.53125 11.636719 36.574219 L 12.15625 36.746094 C 12.285156 36.789062 12.425781 36.742188 12.507812 36.632812 L 14.03125 34.578125 C 14.167969 34.390625 14.277344 34.183594 14.347656 33.960938 L 17.167969 25.273438 C 17.132812 25.265625 17.101562 25.257812 17.066406 25.246094 " fill-opacity="1" fill-rule="nonzero"/></g><path fill="#000000" d="M 18.308594 22.257812 C 18.023438 23.136719 17.089844 23.613281 16.222656 23.324219 C 15.355469 23.035156 14.886719 22.085938 15.171875 21.207031 C 15.457031 20.328125 16.390625 19.851562 17.257812 20.140625 C 18.125 20.429688 18.59375 21.375 18.308594 22.257812 Z M 18.941406 19.261719 L 16.386719 18.410156 C 16.0625 18.300781 15.882812 17.945312 15.992188 17.613281 L 16.207031 16.945312 C 16.308594 16.628906 16.636719 16.453125 16.953125 16.535156 C 16.953125 16.527344 18.636719 17.089844 18.636719 17.089844 L 19.574219 17.402344 C 19.902344 17.511719 20.078125 17.871094 19.972656 18.203125 L 19.953125 18.257812 C 20.429688 18.542969 20.96875 18.710938 21.527344 18.75 L 21.625 17.972656 C 21.710938 17.316406 21.320312 16.695312 20.703125 16.488281 L 16.789062 15.183594 L 16.621094 15.125 C 16.003906 14.917969 15.328125 15.1875 15.007812 15.765625 L 14.628906 16.460938 C 14.046875 17.515625 13.566406 18.628906 13.195312 19.777344 L 12.917969 20.625 C 12.464844 22.019531 13.214844 23.519531 14.589844 23.980469 L 17.152344 24.835938 C 18.53125 25.292969 20.011719 24.535156 20.464844 23.140625 L 20.738281 22.292969 C 20.96875 21.585938 21.152344 20.863281 21.296875 20.132812 C 20.4375 20.050781 19.632812 19.746094 18.941406 19.261719 " fill-opacity="1" fill-rule="nonzero"/><path fill="#000000" d="M 17.898438 22.117188 C 17.6875 22.769531 17 23.121094 16.359375 22.90625 C 15.71875 22.695312 15.371094 21.996094 15.582031 21.347656 C 15.792969 20.695312 16.480469 20.34375 17.121094 20.558594 C 17.761719 20.769531 18.109375 21.46875 17.898438 22.117188 " fill-opacity="1" fill-rule="nonzero"/><g clip-path="url(#c9b1a881ed)"><path fill="#000000" d="M 35.1875 30.449219 C 35.175781 30.886719 34.890625 31.269531 34.480469 31.402344 L 29.308594 33.101562 C 28.898438 33.238281 28.449219 33.09375 28.1875 32.75 C 27.144531 31.371094 26.351562 29.839844 25.824219 28.1875 L 25.265625 26.445312 C 24.738281 24.796875 24.496094 23.082031 24.542969 21.347656 C 24.554688 20.910156 24.839844 20.527344 25.246094 20.390625 L 30.417969 18.691406 C 30.828125 18.558594 31.28125 18.699219 31.542969 19.046875 C 32.582031 20.421875 33.378906 21.957031 33.90625 23.609375 L 34.460938 25.351562 C 34.988281 27 35.234375 28.714844 35.1875 30.449219 Z M 35.574219 24.984375 L 34.011719 20.089844 C 33.445312 18.316406 32.582031 16.652344 31.464844 15.171875 C 30.898438 14.425781 29.933594 14.121094 29.050781 14.410156 L 26.734375 15.171875 C 26.730469 15.601562 26.671875 16.015625 26.566406 16.421875 L 28.957031 15.632812 C 29.222656 15.546875 29.507812 15.695312 29.59375 15.960938 L 29.824219 16.683594 C 29.910156 16.953125 29.761719 17.238281 29.5 17.328125 L 25.226562 18.730469 L 25.195312 18.761719 L 25.046875 18.761719 C 24.992188 18.761719 24.941406 18.753906 24.890625 18.734375 C 24.84375 18.71875 24.796875 18.695312 24.757812 18.667969 C 24.710938 18.632812 24.679688 18.601562 24.652344 18.5625 C 24.644531 18.554688 24.640625 18.546875 24.636719 18.539062 C 24.609375 18.5 24.585938 18.457031 24.570312 18.410156 L 24.460938 18.070312 L 24.332031 17.667969 C 24.261719 17.40625 24.40625 17.128906 24.664062 17.046875 L 24.851562 16.984375 C 25.097656 16.570312 25.257812 16.113281 25.328125 15.636719 L 23.878906 16.109375 C 22.996094 16.402344 22.390625 17.222656 22.367188 18.164062 C 22.359375 18.386719 22.359375 18.609375 22.363281 18.835938 L 22.363281 18.941406 C 22.363281 18.984375 22.367188 19.023438 22.367188 19.066406 C 22.375 19.320312 22.390625 19.578125 22.40625 19.832031 C 22.503906 21.132812 22.75 22.417969 23.144531 23.660156 L 24.710938 28.554688 C 25.277344 30.328125 26.136719 31.992188 27.257812 33.472656 C 27.820312 34.21875 28.789062 34.523438 29.671875 34.230469 L 34.84375 32.53125 C 35.722656 32.242188 36.332031 31.421875 36.355469 30.480469 C 36.40625 28.617188 36.144531 26.757812 35.574219 24.984375 " fill-opacity="1" fill-rule="nonzero"/></g><g clip-path="url(#1f08c0b165)"><path fill="#000000" d="M 21.761719 10.339844 C 19.210938 10.339844 17.132812 12.414062 17.066406 14.984375 L 17.898438 15.261719 C 17.894531 15.210938 17.890625 15.160156 17.890625 15.109375 C 17.890625 12.945312 19.628906 11.179688 21.761719 11.179688 C 23.898438 11.179688 25.636719 12.945312 25.636719 15.109375 C 25.636719 16.121094 25.257812 17.039062 24.636719 17.734375 L 24.828125 18.324219 C 24.859375 18.421875 24.945312 18.488281 25.046875 18.488281 L 25.085938 18.488281 C 25.9375 17.621094 26.46875 16.429688 26.46875 15.109375 C 26.46875 12.480469 24.359375 10.339844 21.761719 10.339844 Z M 21.761719 19.039062 C 20.457031 19.039062 19.296875 18.375 18.597656 17.367188 L 17.433594 16.980469 C 18.152344 18.683594 19.824219 19.882812 21.761719 19.882812 C 21.890625 19.882812 22.015625 19.871094 22.140625 19.863281 C 22.117188 19.582031 22.101562 19.300781 22.097656 19.023438 C 21.984375 19.03125 21.875 19.039062 21.761719 19.039062 " fill-opacity="1" fill-rule="nonzero"/></g><path fill="#000000" d="M 32.191406 29.6875 C 32.128906 29.601562 32.023438 29.566406 31.921875 29.601562 L 30.542969 30.054688 L 30.507812 30.0625 C 30.382812 30.105469 30.3125 30.246094 30.355469 30.375 L 30.363281 30.40625 C 30.726562 30.328125 31.101562 30.457031 31.34375 30.746094 L 32.335938 30.421875 C 32.410156 30.398438 32.46875 30.339844 32.492188 30.261719 C 32.515625 30.1875 32.503906 30.105469 32.453125 30.042969 Z M 29.335938 21.378906 C 29.125 20.839844 28.6875 20.507812 28.316406 20.628906 C 27.945312 20.753906 27.785156 21.28125 27.925781 21.839844 Z M 32.6875 30.324219 C 32.644531 30.46875 32.539062 30.574219 32.398438 30.621094 L 31.269531 30.992188 L 31.222656 30.929688 C 31.019531 30.644531 30.65625 30.523438 30.328125 30.632812 L 30.230469 30.664062 L 30.15625 30.4375 C 30.082031 30.199219 30.210938 29.941406 30.445312 29.867188 L 31.441406 28.605469 C 31.46875 28.570312 31.519531 28.558594 31.5625 28.578125 L 31.964844 28.75 C 32.019531 28.773438 32.042969 28.835938 32.019531 28.890625 C 31.996094 28.941406 31.9375 28.964844 31.882812 28.945312 L 31.554688 28.800781 L 30.804688 29.746094 L 31.859375 29.402344 C 32.042969 29.339844 32.242188 29.40625 32.355469 29.558594 L 32.621094 29.914062 C 32.707031 30.035156 32.734375 30.183594 32.6875 30.324219 Z M 30.746094 31.617188 C 30.527344 31.691406 30.289062 31.566406 30.214844 31.34375 C 30.144531 31.117188 30.265625 30.875 30.488281 30.804688 C 30.707031 30.730469 30.945312 30.855469 31.019531 31.078125 C 31.089844 31.304688 30.96875 31.546875 30.746094 31.617188 Z M 34.429688 27.773438 C 34.375 27.40625 34.007812 27.179688 33.660156 27.292969 L 27.597656 29.285156 C 27.25 29.398438 27.085938 29.804688 27.25 30.132812 C 27.648438 30.925781 28.117188 31.679688 28.652344 32.390625 C 28.761719 32.539062 28.957031 32.597656 29.128906 32.539062 L 34.300781 30.839844 C 34.472656 30.78125 34.597656 30.621094 34.601562 30.4375 C 34.625 29.542969 34.566406 28.652344 34.429688 27.773438 Z M 28.253906 20.429688 C 28.738281 20.273438 29.304688 20.679688 29.542969 21.34375 C 29.667969 21.359375 29.78125 21.445312 29.820312 21.574219 L 29.988281 22.097656 C 30.113281 22.492188 29.902344 22.914062 29.511719 23.042969 L 28.742188 23.296875 C 28.355469 23.421875 27.9375 23.207031 27.8125 22.8125 L 27.644531 22.289062 C 27.605469 22.160156 27.644531 22.027344 27.738281 21.9375 C 27.546875 21.257812 27.769531 20.589844 28.253906 20.429688 Z M 26.070312 24.492188 L 32.125 22.503906 C 32.472656 22.386719 32.640625 21.984375 32.472656 21.652344 C 32.078125 20.863281 31.613281 20.113281 31.074219 19.40625 C 30.964844 19.257812 30.773438 19.199219 30.601562 19.257812 L 25.429688 20.957031 C 25.253906 21.011719 25.132812 21.175781 25.128906 21.359375 C 25.101562 22.25 25.160156 23.136719 25.296875 24.011719 C 25.351562 24.378906 25.722656 24.605469 26.070312 24.492188 Z M 28.746094 21.980469 C 28.921875 21.921875 29.105469 22.019531 29.164062 22.191406 C 29.199219 22.308594 29.167969 22.429688 29.097656 22.515625 L 29.152344 22.691406 C 29.167969 22.742188 29.140625 22.796875 29.089844 22.8125 L 28.953125 22.859375 C 28.902344 22.875 28.847656 22.847656 28.832031 22.796875 L 28.773438 22.621094 C 28.667969 22.59375 28.574219 22.515625 28.535156 22.398438 C 28.480469 22.222656 28.574219 22.035156 28.746094 21.980469 Z M 28.007812 22.75 C 28.097656 23.03125 28.402344 23.1875 28.679688 23.097656 L 29.449219 22.84375 C 29.730469 22.753906 29.882812 22.445312 29.792969 22.164062 L 29.625 21.640625 C 29.601562 21.570312 29.53125 21.535156 29.460938 21.554688 L 27.925781 22.0625 C 27.855469 22.082031 27.820312 22.15625 27.839844 22.226562 Z M 30.015625 25.941406 C 30.1875 25.886719 30.375 25.984375 30.429688 26.15625 C 30.464844 26.273438 30.4375 26.394531 30.363281 26.480469 L 30.417969 26.65625 C 30.4375 26.707031 30.40625 26.761719 30.355469 26.777344 L 30.21875 26.824219 C 30.167969 26.839844 30.113281 26.8125 30.097656 26.761719 L 30.042969 26.585938 C 29.933594 26.558594 29.839844 26.480469 29.804688 26.363281 C 29.746094 26.1875 29.84375 26 30.015625 25.941406 Z M 29.113281 26.207031 L 29.28125 26.730469 C 29.371094 27.015625 29.671875 27.171875 29.953125 27.078125 L 30.722656 26.828125 C 31 26.734375 31.15625 26.429688 31.066406 26.144531 L 30.898438 25.621094 C 30.875 25.554688 30.804688 25.515625 30.734375 25.539062 L 29.304688 26.007812 L 29.195312 26.042969 C 29.128906 26.066406 29.09375 26.140625 29.113281 26.207031 Z M 28.054688 24.898438 C 28.53125 24.742188 29.085938 25.132812 29.332031 25.78125 L 30.671875 25.339844 C 30.847656 25.28125 31.039062 25.378906 31.09375 25.558594 L 31.261719 26.082031 C 31.386719 26.472656 31.171875 26.898438 30.785156 27.027344 L 30.015625 27.277344 C 29.628906 27.40625 29.210938 27.191406 29.085938 26.796875 L 28.917969 26.273438 C 28.859375 26.09375 28.957031 25.902344 29.132812 25.84375 C 28.925781 25.308594 28.488281 24.976562 28.117188 25.097656 C 27.726562 25.226562 27.5625 25.816406 27.75 26.410156 C 27.769531 26.464844 27.738281 26.523438 27.683594 26.542969 C 27.628906 26.558594 27.570312 26.527344 27.554688 26.472656 C 27.328125 25.769531 27.554688 25.0625 28.054688 24.898438 Z M 33.601562 26.542969 C 33.910156 26.441406 34.078125 26.105469 33.984375 25.789062 C 33.960938 25.703125 33.933594 25.617188 33.90625 25.53125 L 33.347656 23.789062 C 33.320312 23.699219 33.289062 23.605469 33.257812 23.511719 C 33.148438 23.207031 32.820312 23.042969 32.515625 23.144531 L 26.125 25.242188 C 25.820312 25.34375 25.644531 25.671875 25.738281 25.984375 C 25.765625 26.078125 25.792969 26.171875 25.824219 26.261719 L 26.378906 28.003906 C 26.40625 28.089844 26.4375 28.175781 26.464844 28.261719 C 26.574219 28.574219 26.902344 28.746094 27.210938 28.640625 L 33.601562 26.542969 " fill-opacity="1" fill-rule="nonzero"/></svg>