<svg xmlns="http://www.w3.org/2000/svg" xmlns:xlink="http://www.w3.org/1999/xlink" width="64" zoomAndPan="magnify" viewBox="0 0 48 48" height="64" preserveAspectRatio="xMidYMid meet" version="1.0"><defs><clipPath id="303b8e6223"><path d="M 0.488281 0 L 47.507812 0 L 47.507812 47.019531 L 0.488281 47.019531 Z M 0.488281 0 " clip-rule="nonzero"/></clipPath><clipPath id="5f458bba2f"><path d="M 7.835938 0 L 40.164062 0 C 42.113281 0 43.980469 0.773438 45.359375 2.152344 C 46.734375 3.53125 47.511719 5.398438 47.511719 7.347656 L 47.511719 39.671875 C 47.511719 41.621094 46.734375 43.492188 45.359375 44.867188 C 43.980469 46.246094 42.113281 47.019531 40.164062 47.019531 L 7.835938 47.019531 C 5.886719 47.019531 4.019531 46.246094 2.640625 44.867188 C 1.265625 43.492188 0.488281 41.621094 0.488281 39.671875 L 0.488281 7.347656 C 0.488281 5.398438 1.265625 3.53125 2.640625 2.152344 C 4.019531 0.773438 5.886719 0 7.835938 0 Z M 7.835938 0 " clip-rule="nonzero"/></clipPath><clipPath id="275e7c5f41"><path d="M 28 16 L 36.289062 16 L 36.289062 31 L 28 31 Z M 28 16 " clip-rule="nonzero"/></clipPath><clipPath id="9be2113b4c"><path d="M 12.042969 32 L 36.289062 32 L 36.289062 35.777344 L 12.042969 35.777344 Z M 12.042969 32 " clip-rule="nonzero"/></clipPath><clipPath id="befddd33b5"><path d="M 12.042969 11.53125 L 27 11.53125 L 27 31 L 12.042969 31 Z M 12.042969 11.53125 " clip-rule="nonzero"/></clipPath></defs><g clip-path="url(#303b8e6223)"><g clip-path="url(#5f458bba2f)"><path fill="#fec877" d="M 0.488281 0 L 47.511719 0 L 47.511719 47.019531 L 0.488281 47.019531 Z M 0.488281 0 " fill-opacity="1" fill-rule="nonzero"/></g></g><g clip-path="url(#275e7c5f41)"><path fill="#000000" d="M 35.476562 16.410156 L 28.207031 16.410156 L 28.207031 30.933594 L 36.285156 30.933594 L 36.285156 17.21875 C 36.285156 16.996094 36.207031 16.804688 36.050781 16.648438 C 35.890625 16.488281 35.703125 16.410156 35.476562 16.410156 Z M 33.863281 28.515625 L 30.628906 28.515625 C 30.410156 28.507812 30.222656 28.429688 30.070312 28.269531 C 29.917969 28.113281 29.839844 27.925781 29.839844 27.707031 C 29.839844 27.488281 29.917969 27.300781 30.070312 27.144531 C 30.222656 26.988281 30.410156 26.90625 30.628906 26.902344 L 33.863281 26.902344 C 34.082031 26.90625 34.269531 26.988281 34.421875 27.144531 C 34.574219 27.300781 34.652344 27.488281 34.652344 27.707031 C 34.652344 27.925781 34.574219 28.113281 34.421875 28.269531 C 34.269531 28.429688 34.082031 28.507812 33.863281 28.515625 Z M 33.863281 25.285156 L 30.628906 25.285156 C 30.40625 25.285156 30.214844 25.207031 30.058594 25.050781 C 29.902344 24.894531 29.820312 24.703125 29.820312 24.480469 C 29.820312 24.257812 29.902344 24.066406 30.058594 23.910156 C 30.214844 23.75 30.40625 23.671875 30.628906 23.671875 L 33.863281 23.671875 C 34.085938 23.671875 34.277344 23.75 34.433594 23.910156 C 34.589844 24.066406 34.671875 24.257812 34.671875 24.480469 C 34.671875 24.703125 34.589844 24.894531 34.433594 25.050781 C 34.277344 25.207031 34.085938 25.285156 33.863281 25.285156 Z M 33.863281 22.058594 L 30.628906 22.058594 C 30.410156 22.054688 30.222656 21.972656 30.070312 21.816406 C 29.917969 21.660156 29.839844 21.472656 29.839844 21.253906 C 29.839844 21.035156 29.917969 20.84375 30.070312 20.6875 C 30.222656 20.53125 30.410156 20.449219 30.628906 20.445312 L 33.863281 20.445312 C 34.082031 20.449219 34.269531 20.53125 34.421875 20.6875 C 34.574219 20.84375 34.652344 21.035156 34.652344 21.253906 C 34.652344 21.472656 34.574219 21.660156 34.421875 21.816406 C 34.269531 21.972656 34.082031 22.054688 33.863281 22.058594 Z M 33.863281 22.058594 " fill-opacity="1" fill-rule="nonzero"/></g><g clip-path="url(#9be2113b4c)"><path fill="#000000" d="M 12.042969 34.96875 C 12.042969 35.191406 12.125 35.382812 12.28125 35.539062 C 12.4375 35.699219 12.628906 35.777344 12.851562 35.777344 L 35.476562 35.777344 C 35.703125 35.777344 35.890625 35.699219 36.050781 35.539062 C 36.207031 35.382812 36.285156 35.191406 36.285156 34.96875 L 36.285156 32.546875 L 12.042969 32.546875 Z M 12.042969 34.96875 " fill-opacity="1" fill-rule="nonzero"/></g><g clip-path="url(#befddd33b5)"><path fill="#000000" d="M 16.085938 26.902344 C 16.085938 26.679688 16.164062 26.488281 16.320312 26.328125 C 16.480469 26.171875 16.667969 26.09375 16.894531 26.09375 L 21.742188 26.09375 C 21.964844 26.09375 22.15625 26.171875 22.3125 26.328125 C 22.472656 26.488281 22.550781 26.679688 22.550781 26.902344 L 22.550781 30.933594 L 26.589844 30.933594 L 26.589844 12.375 C 26.589844 12.253906 26.5625 12.132812 26.507812 12.023438 C 26.453125 11.910156 26.378906 11.816406 26.277344 11.742188 C 26.179688 11.664062 26.070312 11.613281 25.949219 11.585938 C 25.828125 11.5625 25.707031 11.5625 25.585938 11.59375 L 12.65625 14.820312 C 12.476562 14.867188 12.328125 14.960938 12.214844 15.109375 C 12.101562 15.253906 12.042969 15.417969 12.042969 15.605469 L 12.042969 30.933594 L 16.085938 30.933594 Z M 16.488281 18.023438 L 22.144531 18.023438 C 22.371094 18.019531 22.566406 18.097656 22.730469 18.253906 C 22.890625 18.414062 22.972656 18.605469 22.972656 18.832031 C 22.972656 19.058594 22.890625 19.25 22.730469 19.410156 C 22.566406 19.566406 22.371094 19.644531 22.144531 19.636719 L 16.488281 19.636719 C 16.261719 19.644531 16.066406 19.566406 15.90625 19.410156 C 15.742188 19.25 15.660156 19.058594 15.660156 18.832031 C 15.660156 18.605469 15.742188 18.414062 15.90625 18.253906 C 16.066406 18.097656 16.261719 18.019531 16.488281 18.023438 Z M 15.679688 23.671875 C 15.679688 23.449219 15.761719 23.261719 15.917969 23.101562 C 16.074219 22.945312 16.265625 22.867188 16.488281 22.867188 L 22.144531 22.867188 C 22.371094 22.859375 22.566406 22.9375 22.730469 23.09375 C 22.890625 23.253906 22.972656 23.445312 22.972656 23.671875 C 22.972656 23.898438 22.890625 24.09375 22.730469 24.25 C 22.566406 24.410156 22.371094 24.484375 22.144531 24.480469 L 16.488281 24.480469 C 16.265625 24.480469 16.074219 24.402344 15.917969 24.242188 C 15.761719 24.085938 15.679688 23.894531 15.679688 23.671875 Z M 15.679688 23.671875 " fill-opacity="1" fill-rule="nonzero"/></g><path fill="#000000" d="M 17.703125 27.707031 L 20.933594 27.707031 L 20.933594 30.933594 L 17.703125 30.933594 Z M 17.703125 27.707031 " fill-opacity="1" fill-rule="nonzero"/></svg>