<svg xmlns="http://www.w3.org/2000/svg" xmlns:xlink="http://www.w3.org/1999/xlink" width="64" zoomAndPan="magnify" viewBox="0 0 48 48" height="64" preserveAspectRatio="xMidYMid meet" version="1.0"><defs><clipPath id="5ffac9bf57"><path d="M 0.488281 0 L 47.507812 0 L 47.507812 47.019531 L 0.488281 47.019531 Z M 0.488281 0 " clip-rule="nonzero"/></clipPath><clipPath id="fb8599f254"><path d="M 7.835938 0 L 40.164062 0 C 42.113281 0 43.980469 0.773438 45.359375 2.152344 C 46.734375 3.53125 47.511719 5.398438 47.511719 7.347656 L 47.511719 39.671875 C 47.511719 41.621094 46.734375 43.492188 45.359375 44.867188 C 43.980469 46.246094 42.113281 47.019531 40.164062 47.019531 L 7.835938 47.019531 C 5.886719 47.019531 4.019531 46.246094 2.640625 44.867188 C 1.265625 43.492188 0.488281 41.621094 0.488281 39.671875 L 0.488281 7.347656 C 0.488281 5.398438 1.265625 3.53125 2.640625 2.152344 C 4.019531 0.773438 5.886719 0 7.835938 0 Z M 7.835938 0 " clip-rule="nonzero"/></clipPath><clipPath id="2fe3875ff0"><path d="M 12.828125 12.382812 L 34.871094 12.382812 L 34.871094 34.421875 L 12.828125 34.421875 Z M 12.828125 12.382812 " clip-rule="nonzero"/></clipPath><clipPath id="860550421e"><path d="M 12.828125 28 L 18 28 L 18 33 L 12.828125 33 Z M 12.828125 28 " clip-rule="nonzero"/></clipPath><clipPath id="84bf69bc96"><path d="M 32 22 L 34.871094 22 L 34.871094 28 L 32 28 Z M 32 22 " clip-rule="nonzero"/></clipPath><clipPath id="3f260717d2"><path d="M 28 12.382812 L 34 12.382812 L 34 21 L 28 21 Z M 28 12.382812 " clip-rule="nonzero"/></clipPath></defs><g clip-path="url(#5ffac9bf57)"><g clip-path="url(#fb8599f254)"><path fill="#7bda78" d="M 0.488281 0 L 47.511719 0 L 47.511719 47.019531 L 0.488281 47.019531 Z M 0.488281 0 " fill-opacity="1" fill-rule="nonzero"/></g></g><path fill="#000000" d="M 26.695312 20.132812 L 25.390625 17.511719 C 25.25 17.222656 24.957031 17.042969 24.636719 17.042969 L 19.769531 17.042969 C 19.453125 17.042969 19.160156 17.222656 19.015625 17.511719 L 17.710938 20.132812 C 17.386719 20.78125 16.71875 20.5625 16.71875 21.703125 L 16.71875 24.246094 C 16.71875 24.714844 17.09375 25.09375 17.5625 25.09375 L 17.984375 25.09375 L 17.984375 25.941406 C 17.984375 26.175781 18.171875 26.367188 18.40625 26.367188 L 20.09375 26.367188 C 20.328125 26.367188 20.515625 26.175781 20.515625 25.941406 L 20.515625 25.09375 L 23.894531 25.09375 L 23.894531 25.941406 C 23.894531 26.175781 24.082031 26.367188 24.316406 26.367188 L 26.003906 26.367188 C 26.238281 26.367188 26.425781 26.175781 26.425781 25.941406 L 26.425781 25.09375 C 26.425781 25.09375 26.847656 25.09375 26.847656 25.09375 C 27.316406 25.09375 27.691406 24.714844 27.691406 24.246094 L 27.691406 21.703125 C 27.691406 20.566406 27.019531 20.777344 26.699219 20.132812 Z M 20.09375 18.3125 L 24.3125 18.3125 L 25.371094 20.433594 L 19.039062 20.433594 Z M 19.671875 22.550781 L 18.40625 22.550781 C 18.171875 22.550781 17.980469 22.363281 17.980469 22.128906 C 17.980469 21.894531 18.171875 21.703125 18.40625 21.703125 L 19.671875 21.703125 C 19.902344 21.703125 20.09375 21.894531 20.09375 22.128906 C 20.09375 22.363281 19.902344 22.550781 19.671875 22.550781 Z M 26.003906 22.550781 L 24.734375 22.550781 C 24.503906 22.550781 24.3125 22.363281 24.3125 22.128906 C 24.3125 21.894531 24.503906 21.703125 24.734375 21.703125 L 26.003906 21.703125 C 26.234375 21.703125 26.425781 21.894531 26.425781 22.128906 C 26.425781 22.363281 26.234375 22.550781 26.003906 22.550781 Z M 26.003906 22.550781 " fill-opacity="1" fill-rule="nonzero"/><g clip-path="url(#2fe3875ff0)"><path fill="#000000" d="M 34.371094 31.527344 L 29.855469 26.988281 C 30.886719 25.488281 31.488281 23.667969 31.488281 21.703125 C 31.488281 16.554688 27.332031 12.378906 22.203125 12.378906 C 17.074219 12.378906 12.917969 16.554688 12.917969 21.703125 C 12.917969 26.855469 17.074219 31.03125 22.203125 31.03125 C 24.15625 31.03125 25.96875 30.421875 27.464844 29.386719 L 31.984375 33.925781 C 32.3125 34.253906 32.746094 34.421875 33.179688 34.421875 C 34.113281 34.421875 34.867188 33.660156 34.867188 32.726562 C 34.867188 32.292969 34.703125 31.859375 34.371094 31.527344 Z M 15.027344 21.703125 C 15.027344 17.722656 18.238281 14.5 22.203125 14.5 C 26.167969 14.5 29.378906 17.722656 29.378906 21.703125 C 29.378906 25.683594 26.167969 28.910156 22.203125 28.910156 C 18.238281 28.910156 15.027344 25.683594 15.027344 21.703125 Z M 15.027344 21.703125 " fill-opacity="1" fill-rule="nonzero"/></g><g clip-path="url(#860550421e)"><path fill="#000000" d="M 17.347656 32.300781 C 17.269531 32.300781 17.191406 32.285156 17.113281 32.253906 C 14.875 31.355469 13.128906 29.1875 13.054688 29.09375 C 12.835938 28.820312 12.882812 28.421875 13.152344 28.203125 C 13.425781 27.984375 13.824219 28.027344 14.042969 28.300781 C 14.058594 28.320312 15.660156 30.300781 17.582031 31.074219 C 17.910156 31.207031 18.066406 31.574219 17.9375 31.902344 C 17.839844 32.148438 17.601562 32.300781 17.347656 32.300781 Z M 17.347656 32.300781 " fill-opacity="1" fill-rule="nonzero"/></g><path fill="#000000" d="M 20.726562 33.996094 C 20.375 33.996094 20.09375 33.710938 20.09375 33.359375 C 20.09375 33.011719 20.375 32.726562 20.726562 32.726562 C 22.566406 32.726562 24.652344 32.726562 26.371094 31.9375 C 26.691406 31.789062 27.066406 31.929688 27.210938 32.25 C 27.355469 32.570312 27.21875 32.945312 26.898438 33.09375 C 24.925781 33.996094 22.597656 33.996094 20.726562 33.996094 Z M 20.726562 33.996094 " fill-opacity="1" fill-rule="nonzero"/><g clip-path="url(#84bf69bc96)"><path fill="#000000" d="M 32.96875 27.640625 C 32.835938 27.640625 32.703125 27.597656 32.585938 27.511719 C 32.308594 27.300781 32.25 26.902344 32.460938 26.621094 C 32.476562 26.597656 33.601562 25.054688 33.601562 23.1875 C 33.601562 22.835938 33.882812 22.554688 34.234375 22.554688 C 34.582031 22.554688 34.867188 22.835938 34.867188 23.1875 C 34.867188 25.492188 33.53125 27.308594 33.472656 27.386719 C 33.347656 27.550781 33.160156 27.640625 32.964844 27.640625 Z M 32.96875 27.640625 " fill-opacity="1" fill-rule="nonzero"/></g><g clip-path="url(#3f260717d2)"><path fill="#000000" d="M 32.96875 20.007812 C 32.679688 20.007812 32.417969 19.808594 32.351562 19.515625 C 31.5625 16.046875 29.195312 13.9375 29.171875 13.917969 C 28.910156 13.6875 28.882812 13.285156 29.113281 13.019531 C 29.34375 12.757812 29.746094 12.730469 30.007812 12.960938 C 30.117188 13.058594 32.703125 15.367188 33.585938 19.230469 C 33.664062 19.574219 33.449219 19.914062 33.109375 19.992188 C 33.0625 20.003906 33.011719 20.007812 32.96875 20.007812 Z M 32.96875 20.007812 " fill-opacity="1" fill-rule="nonzero"/></g></svg>