<svg xmlns="http://www.w3.org/2000/svg" xmlns:xlink="http://www.w3.org/1999/xlink" width="64" zoomAndPan="magnify" viewBox="0 0 48 48" height="64" preserveAspectRatio="xMidYMid meet" version="1.0"><defs><clipPath id="55859be06a"><path d="M 0.488281 0 L 47.507812 0 L 47.507812 47.019531 L 0.488281 47.019531 Z M 0.488281 0 " clip-rule="nonzero"/></clipPath><clipPath id="2cf19fbe48"><path d="M 7.835938 0 L 40.164062 0 C 42.113281 0 43.980469 0.773438 45.359375 2.152344 C 46.734375 3.53125 47.511719 5.398438 47.511719 7.347656 L 47.511719 39.671875 C 47.511719 41.621094 46.734375 43.492188 45.359375 44.867188 C 43.980469 46.246094 42.113281 47.019531 40.164062 47.019531 L 7.835938 47.019531 C 5.886719 47.019531 4.019531 46.246094 2.640625 44.867188 C 1.265625 43.492188 0.488281 41.621094 0.488281 39.671875 L 0.488281 7.347656 C 0.488281 5.398438 1.265625 3.53125 2.640625 2.152344 C 4.019531 0.773438 5.886719 0 7.835938 0 Z M 7.835938 0 " clip-rule="nonzero"/></clipPath><clipPath id="0eae66d706"><path d="M 10.535156 12.785156 L 37.71875 12.785156 L 37.71875 34.09375 L 10.535156 34.09375 Z M 10.535156 12.785156 " clip-rule="nonzero"/></clipPath></defs><g clip-path="url(#55859be06a)"><g clip-path="url(#2cf19fbe48)"><path fill="#bc71d3" d="M 0.488281 0 L 47.511719 0 L 47.511719 47.019531 L 0.488281 47.019531 Z M 0.488281 0 " fill-opacity="1" fill-rule="nonzero"/></g></g><g clip-path="url(#0eae66d706)"><path fill="#000000" d="M 37.574219 22.558594 L 37.253906 21.679688 C 37.082031 21.195312 36.535156 20.796875 36.042969 20.796875 L 34.917969 20.796875 C 34.082031 18.496094 33.070312 15.710938 32.753906 15.058594 C 32.292969 14.035156 30.820312 13.582031 30.011719 13.355469 C 30.011719 13.355469 28.65625 12.84375 24.125 12.84375 C 19.59375 12.84375 18.265625 13.355469 18.265625 13.355469 C 17.316406 13.667969 15.988281 14.121094 15.46875 15.089844 C 15.207031 15.570312 14.167969 18.410156 13.332031 20.796875 L 12.234375 20.796875 C 11.746094 20.796875 11.199219 21.195312 11.023438 21.679688 L 10.707031 22.558594 C 10.535156 23.042969 10.792969 23.4375 11.285156 23.4375 L 12.410156 23.4375 C 12.265625 23.835938 12.179688 24.0625 12.179688 24.0625 C 12.09375 24.207031 12.035156 24.859375 12.035156 25.058594 L 12.035156 33.097656 C 12.035156 33.609375 12.46875 34.035156 12.988281 34.035156 L 16.449219 34.035156 C 16.96875 34.035156 17.402344 33.609375 17.402344 33.097656 L 17.402344 31.394531 L 30.878906 31.394531 L 30.878906 33.097656 C 30.878906 33.609375 31.3125 34.035156 31.832031 34.035156 L 35.320312 34.035156 C 35.839844 34.035156 36.273438 33.609375 36.273438 33.097656 L 36.273438 25.058594 C 36.273438 24.886719 36.21875 24.207031 36.128906 24.0625 C 36.128906 24.0625 36.042969 23.835938 35.898438 23.4375 L 36.996094 23.4375 C 37.457031 23.4375 37.71875 23.042969 37.574219 22.558594 Z M 17.402344 27.5 L 16.246094 26.734375 C 14.113281 26.5625 13.851562 27.300781 13.390625 26.507812 L 13.390625 25.542969 C 13.390625 24.605469 13.9375 24.574219 14.542969 24.574219 C 15.121094 24.574219 16.277344 25.058594 17.054688 25.398438 C 17.890625 25.769531 18.5 25.457031 18.816406 26.675781 C 18.785156 27.246094 18.46875 27.5 17.402344 27.5 Z M 15.382812 21.167969 C 16.101562 18.269531 17.316406 16.253906 17.488281 15.769531 C 17.605469 15.429688 17.316406 14.804688 24.15625 14.804688 C 30.992188 14.804688 30.617188 15.710938 30.648438 15.742188 C 30.964844 16.394531 32.234375 18.523438 32.898438 21.167969 C 32.898438 21.167969 30.328125 21.507812 24.472656 21.507812 C 18.613281 21.507812 15.382812 21.167969 15.382812 21.167969 Z M 29.492188 26.675781 C 30.847656 25.03125 30.417969 25.769531 31.253906 25.398438 C 32.003906 25.058594 33.1875 24.574219 33.765625 24.574219 C 34.371094 24.574219 34.917969 24.605469 34.917969 25.542969 L 34.917969 26.507812 C 34.484375 27.273438 34.109375 26.59375 31.945312 26.792969 L 30.878906 27.472656 C 29.808594 27.5 29.117188 27.105469 29.492188 26.675781 Z M 29.492188 26.675781 " fill-opacity="1" fill-rule="nonzero"/></g></svg>