<svg xmlns="http://www.w3.org/2000/svg" xmlns:xlink="http://www.w3.org/1999/xlink" width="64" zoomAndPan="magnify" viewBox="0 0 48 48" height="64" preserveAspectRatio="xMidYMid meet" version="1.0"><defs><clipPath id="771b81a355"><path d="M 0.488281 0 L 47.507812 0 L 47.507812 47.019531 L 0.488281 47.019531 Z M 0.488281 0 " clip-rule="nonzero"/></clipPath><clipPath id="379152900f"><path d="M 7.835938 0 L 40.164062 0 C 42.113281 0 43.980469 0.773438 45.359375 2.152344 C 46.734375 3.53125 47.511719 5.398438 47.511719 7.347656 L 47.511719 39.671875 C 47.511719 41.621094 46.734375 43.492188 45.359375 44.867188 C 43.980469 46.246094 42.113281 47.019531 40.164062 47.019531 L 7.835938 47.019531 C 5.886719 47.019531 4.019531 46.246094 2.640625 44.867188 C 1.265625 43.492188 0.488281 41.621094 0.488281 39.671875 L 0.488281 7.347656 C 0.488281 5.398438 1.265625 3.53125 2.640625 2.152344 C 4.019531 0.773438 5.886719 0 7.835938 0 Z M 7.835938 0 " clip-rule="nonzero"/></clipPath><clipPath id="d1bc1ab3d3"><path d="M 19 15 L 38 15 L 38 35.265625 L 19 35.265625 Z M 19 15 " clip-rule="nonzero"/></clipPath><clipPath id="1df2349b38"><path d="M 36 27 L 40.113281 27 L 40.113281 31 L 36 31 Z M 36 27 " clip-rule="nonzero"/></clipPath><clipPath id="697fa33fc6"><path d="M 7.789062 27 L 21 27 L 21 31 L 7.789062 31 Z M 7.789062 27 " clip-rule="nonzero"/></clipPath><clipPath id="f01f8748c3"><path d="M 10 11.757812 L 38 11.757812 L 38 27 L 10 27 Z M 10 11.757812 " clip-rule="nonzero"/></clipPath></defs><g clip-path="url(#771b81a355)"><g clip-path="url(#379152900f)"><path fill="#2ac2f1" d="M 0.488281 0 L 47.511719 0 L 47.511719 47.019531 L 0.488281 47.019531 Z M 0.488281 0 " fill-opacity="1" fill-rule="nonzero"/></g></g><g clip-path="url(#d1bc1ab3d3)"><path fill="#000000" d="M 31.519531 25.554688 C 31.003906 25.273438 30.730469 24.738281 30.582031 24.21875 C 31.296875 23.578125 31.925781 22.464844 32.328125 20.566406 C 33.347656 15.75 29.472656 15.359375 28.472656 15.359375 C 27.472656 15.359375 23.601562 15.746094 24.621094 20.566406 C 25.019531 22.464844 25.648438 23.578125 26.363281 24.21875 C 26.214844 24.738281 25.941406 25.273438 25.425781 25.554688 C 24.222656 26.203125 21.730469 26.851562 21.082031 28.425781 C 20.4375 30 19.605469 35.097656 19.605469 35.097656 L 37.339844 35.097656 C 37.339844 35.097656 36.507812 30 35.859375 28.425781 C 35.214844 26.851562 32.722656 26.203125 31.519531 25.554688 Z M 31.519531 25.554688 " fill-opacity="1" fill-rule="nonzero"/></g><path fill="#000000" d="M 18.910156 19.796875 C 18.25 20.15625 16.871094 20.511719 16.515625 21.382812 C 16.15625 22.253906 15.699219 25.066406 15.699219 25.066406 L 24.570312 25.066406 C 24.742188 24.988281 24.902344 24.914062 25.042969 24.839844 C 25.175781 24.769531 25.289062 24.640625 25.386719 24.472656 C 25.378906 24.425781 25.371094 24.378906 25.363281 24.328125 C 24.667969 23.488281 24.164062 22.3125 23.828125 20.734375 C 23.8125 20.660156 23.804688 20.585938 23.792969 20.511719 C 23.269531 20.210938 22.65625 20.003906 22.277344 19.796875 C 21.992188 19.644531 21.839844 19.347656 21.757812 19.0625 C 22.152344 18.707031 22.5 18.09375 22.722656 17.046875 C 23.285156 14.382812 21.144531 14.167969 20.59375 14.167969 C 20.042969 14.167969 17.902344 14.382812 18.464844 17.046875 C 18.6875 18.09375 19.035156 18.707031 19.429688 19.0625 C 19.347656 19.347656 19.195312 19.644531 18.910156 19.796875 Z M 18.910156 19.796875 " fill-opacity="1" fill-rule="nonzero"/><g clip-path="url(#1df2349b38)"><path fill="#000000" d="M 36.28125 27.527344 C 36.410156 27.710938 36.523438 27.90625 36.609375 28.117188 C 36.84375 28.6875 37.09375 29.660156 37.324219 30.699219 C 38.890625 30.585938 40.132812 29.289062 40.132812 27.6875 L 40.132812 27.527344 Z M 36.28125 27.527344 " fill-opacity="1" fill-rule="nonzero"/></g><g clip-path="url(#697fa33fc6)"><path fill="#000000" d="M 20.335938 28.117188 C 20.425781 27.902344 20.539062 27.710938 20.667969 27.527344 L 7.769531 27.527344 L 7.769531 27.683594 C 7.769531 29.359375 9.125 30.71875 10.796875 30.71875 L 19.617188 30.71875 C 19.847656 29.675781 20.101562 28.691406 20.335938 28.117188 Z M 20.335938 28.117188 " fill-opacity="1" fill-rule="nonzero"/></g><g clip-path="url(#f01f8748c3)"><path fill="#000000" d="M 12.023438 15.328125 C 12.023438 14.359375 12.171875 13.8125 12.625 13.519531 C 12.945312 13.3125 13.417969 13.238281 14.109375 13.238281 L 33.792969 13.238281 C 34.484375 13.238281 34.957031 13.3125 35.277344 13.519531 C 35.730469 13.8125 35.878906 14.359375 35.878906 15.328125 L 35.878906 26.347656 L 37.265625 26.347656 L 37.265625 15.328125 C 37.265625 14.242188 37.058594 13.433594 36.617188 12.867188 C 36.0625 12.164062 35.144531 11.84375 33.792969 11.84375 L 14.109375 11.84375 C 12.757812 11.84375 11.839844 12.164062 11.285156 12.867188 C 10.84375 13.433594 10.636719 14.242188 10.636719 15.328125 L 10.636719 26.347656 L 12.023438 26.347656 Z M 12.023438 15.328125 " fill-opacity="1" fill-rule="nonzero"/></g></svg>