<svg xmlns="http://www.w3.org/2000/svg" xmlns:xlink="http://www.w3.org/1999/xlink" width="64" zoomAndPan="magnify" viewBox="0 0 48 48" height="64" preserveAspectRatio="xMidYMid meet" version="1.0"><defs><clipPath id="5a2cb0069c"><path d="M 0.488281 0 L 47.507812 0 L 47.507812 47.019531 L 0.488281 47.019531 Z M 0.488281 0 " clip-rule="nonzero"/></clipPath><clipPath id="1221991f8b"><path d="M 7.835938 0 L 40.164062 0 C 42.113281 0 43.980469 0.773438 45.359375 2.152344 C 46.734375 3.53125 47.511719 5.398438 47.511719 7.347656 L 47.511719 39.671875 C 47.511719 41.621094 46.734375 43.492188 45.359375 44.867188 C 43.980469 46.246094 42.113281 47.019531 40.164062 47.019531 L 7.835938 47.019531 C 5.886719 47.019531 4.019531 46.246094 2.640625 44.867188 C 1.265625 43.492188 0.488281 41.621094 0.488281 39.671875 L 0.488281 7.347656 C 0.488281 5.398438 1.265625 3.53125 2.640625 2.152344 C 4.019531 0.773438 5.886719 0 7.835938 0 Z M 7.835938 0 " clip-rule="nonzero"/></clipPath><clipPath id="b9591b071d"><path d="M 12.234375 11.671875 L 35.746094 11.671875 L 35.746094 35.183594 L 12.234375 35.183594 Z M 12.234375 11.671875 " clip-rule="nonzero"/></clipPath></defs><g clip-path="url(#5a2cb0069c)"><g clip-path="url(#1221991f8b)"><path fill="#7286d2" d="M 0.488281 0 L 47.511719 0 L 47.511719 47.019531 L 0.488281 47.019531 Z M 0.488281 0 " fill-opacity="1" fill-rule="nonzero"/></g></g><g clip-path="url(#b9591b071d)"><path fill="#000000" d="M 24.136719 14.929688 L 24.898438 16.925781 C 24.921875 16.984375 24.976562 17.023438 25.039062 17.027344 L 27.179688 17.128906 C 27.25 17.132812 27.304688 17.175781 27.324219 17.238281 C 27.34375 17.300781 27.324219 17.367188 27.273438 17.410156 L 25.601562 18.746094 C 25.550781 18.785156 25.53125 18.847656 25.546875 18.910156 L 26.109375 20.964844 C 26.128906 21.03125 26.105469 21.09375 26.050781 21.132812 C 25.996094 21.171875 25.925781 21.175781 25.871094 21.136719 L 24.074219 19.972656 C 24.023438 19.9375 23.957031 19.9375 23.902344 19.972656 L 22.109375 21.136719 C 22.050781 21.175781 21.980469 21.171875 21.925781 21.132812 C 21.875 21.09375 21.851562 21.03125 21.867188 20.964844 L 22.429688 18.910156 C 22.449219 18.847656 22.425781 18.785156 22.375 18.746094 L 20.707031 17.410156 C 20.652344 17.367188 20.632812 17.300781 20.652344 17.238281 C 20.675781 17.175781 20.730469 17.132812 20.796875 17.128906 L 22.9375 17.027344 C 23.003906 17.023438 23.058594 16.984375 23.078125 16.925781 L 23.839844 14.929688 C 23.863281 14.867188 23.921875 14.828125 23.988281 14.828125 C 24.054688 14.828125 24.113281 14.867188 24.136719 14.929688 Z M 19.988281 14.304688 L 21.328125 15.503906 C 21.484375 15.640625 21.722656 15.628906 21.859375 15.476562 C 22 15.320312 21.988281 15.085938 21.832031 14.945312 L 20.492188 13.746094 C 20.339844 13.609375 20.101562 13.621094 19.960938 13.773438 C 19.820312 13.929688 19.832031 14.167969 19.988281 14.304688 Z M 27.484375 13.746094 L 26.136719 14.953125 C 25.980469 15.09375 25.96875 15.328125 26.109375 15.484375 C 26.25 15.636719 26.488281 15.648438 26.640625 15.511719 L 27.988281 14.304688 C 28.144531 14.167969 28.15625 13.929688 28.019531 13.773438 C 27.878906 13.621094 27.640625 13.609375 27.484375 13.746094 Z M 24.367188 13.433594 C 24.367188 13.644531 24.199219 13.8125 23.988281 13.8125 C 23.78125 13.8125 23.609375 13.644531 23.609375 13.433594 L 23.609375 12.058594 C 23.609375 11.851562 23.78125 11.683594 23.988281 11.683594 C 24.199219 11.683594 24.367188 11.851562 24.367188 12.058594 Z M 23.988281 22.34375 C 25.453125 22.34375 26.640625 23.523438 26.640625 24.976562 C 26.640625 26.429688 25.453125 27.609375 23.988281 27.609375 C 22.523438 27.609375 21.339844 26.429688 21.339844 24.976562 C 21.339844 23.523438 22.523438 22.34375 23.988281 22.34375 Z M 29.199219 32.726562 C 28.917969 30.113281 26.695312 28.078125 23.988281 28.078125 C 21.285156 28.078125 19.058594 30.113281 18.777344 32.726562 L 18.777344 33.78125 C 18.777344 34.546875 19.40625 35.171875 20.179688 35.171875 L 27.800781 35.171875 C 28.570312 35.171875 29.199219 34.546875 29.199219 33.78125 Z M 31.910156 24.253906 C 33.003906 24.253906 33.894531 25.136719 33.894531 26.226562 C 33.894531 27.3125 33.003906 28.195312 31.910156 28.195312 C 30.816406 28.195312 29.925781 27.3125 29.925781 26.226562 C 29.925781 25.136719 30.816406 24.253906 31.910156 24.253906 Z M 16.066406 24.253906 C 17.164062 24.253906 18.050781 25.136719 18.050781 26.226562 C 18.050781 27.3125 17.164062 28.195312 16.066406 28.195312 C 14.972656 28.195312 14.085938 27.3125 14.085938 26.226562 C 14.085938 25.136719 14.972656 24.253906 16.066406 24.253906 Z M 16.066406 28.722656 C 17.222656 28.722656 18.261719 29.21875 18.980469 30.007812 C 18.472656 30.769531 18.136719 31.65625 18.03125 32.621094 L 13.175781 32.621094 C 12.882812 32.621094 12.628906 32.492188 12.457031 32.257812 C 12.28125 32.023438 12.234375 31.742188 12.320312 31.464844 C 12.816406 29.875 14.308594 28.722656 16.066406 28.722656 Z M 31.910156 28.722656 C 33.671875 28.722656 35.160156 29.875 35.65625 31.464844 C 35.742188 31.742188 35.695312 32.023438 35.523438 32.257812 C 35.347656 32.492188 35.09375 32.621094 34.800781 32.621094 L 29.949219 32.621094 C 29.839844 31.65625 29.503906 30.769531 28.996094 30.007812 C 29.714844 29.21875 30.753906 28.722656 31.910156 28.722656 Z M 15.769531 14.929688 L 16.53125 16.925781 C 16.554688 16.984375 16.609375 17.023438 16.671875 17.027344 L 18.816406 17.128906 C 18.882812 17.132812 18.9375 17.175781 18.957031 17.238281 C 18.976562 17.300781 18.957031 17.367188 18.90625 17.410156 L 17.234375 18.746094 C 17.183594 18.785156 17.164062 18.847656 17.179688 18.910156 L 17.742188 20.964844 C 17.761719 21.03125 17.738281 21.09375 17.683594 21.132812 C 17.628906 21.171875 17.558594 21.175781 17.503906 21.136719 L 15.710938 19.972656 C 15.65625 19.9375 15.589844 19.9375 15.535156 19.972656 L 13.742188 21.136719 C 13.683594 21.175781 13.613281 21.171875 13.5625 21.132812 C 13.507812 21.09375 13.484375 21.03125 13.5 20.964844 L 14.0625 18.910156 C 14.082031 18.847656 14.058594 18.785156 14.011719 18.746094 L 12.339844 17.410156 C 12.285156 17.367188 12.265625 17.300781 12.285156 17.238281 C 12.308594 17.175781 12.363281 17.132812 12.429688 17.128906 L 14.570312 17.027344 C 14.636719 17.023438 14.691406 16.984375 14.710938 16.925781 L 15.472656 14.929688 C 15.496094 14.867188 15.554688 14.828125 15.621094 14.828125 C 15.691406 14.828125 15.746094 14.867188 15.769531 14.929688 Z M 32.480469 14.929688 L 33.242188 16.925781 C 33.261719 16.984375 33.316406 17.023438 33.382812 17.027344 L 35.523438 17.128906 C 35.589844 17.132812 35.644531 17.175781 35.667969 17.238281 C 35.6875 17.300781 35.667969 17.367188 35.613281 17.410156 L 33.941406 18.746094 C 33.894531 18.785156 33.871094 18.847656 33.890625 18.910156 L 34.453125 20.964844 C 34.46875 21.03125 34.445312 21.09375 34.390625 21.132812 C 34.339844 21.171875 34.269531 21.175781 34.210938 21.136719 L 32.417969 19.972656 C 32.363281 19.9375 32.296875 19.9375 32.242188 19.972656 L 30.449219 21.136719 C 30.394531 21.175781 30.324219 21.171875 30.269531 21.132812 C 30.214844 21.09375 30.191406 21.03125 30.210938 20.964844 L 30.773438 18.910156 C 30.789062 18.847656 30.769531 18.785156 30.71875 18.746094 L 29.046875 17.410156 C 28.996094 17.367188 28.976562 17.300781 28.996094 17.238281 C 29.015625 17.175781 29.070312 17.132812 29.136719 17.128906 L 31.28125 17.027344 C 31.34375 17.023438 31.398438 16.984375 31.421875 16.925781 L 32.183594 14.929688 C 32.207031 14.867188 32.265625 14.828125 32.332031 14.828125 C 32.398438 14.828125 32.457031 14.867188 32.480469 14.929688 Z M 32.480469 14.929688 " fill-opacity="1" fill-rule="evenodd"/></g></svg>