<svg width="56" height="56" viewBox="0 0 56 56" fill="none" xmlns="http://www.w3.org/2000/svg">
<rect width="56" height="56" rx="28" fill="black" fill-opacity="0.48"/>
<rect x="4" y="4" width="48" height="48" rx="24" fill="#15131D"/>
<path fill-rule="evenodd" clip-rule="evenodd" d="M19 25L30.126 25C30.5701 26.7252 32.1362 28 34 28C36.2091 28 38 26.2091 38 24C38 21.7909 36.2091 20 34 20C32.1362 20 30.5701 21.2748 30.126 23L19 23C18.4477 23 18 23.4477 18 24C18 24.5523 18.4477 25 19 25Z" fill="#CAC6DD"/>
<path fill-rule="evenodd" clip-rule="evenodd" d="M37 31L25.874 31C25.4299 29.2748 23.8638 28 22 28C19.7909 28 18 29.7909 18 32C18 34.2091 19.7909 36 22 36C23.8638 36 25.4299 34.7252 25.874 33L37 33C37.5523 33 38 32.5523 38 32C38 31.4477 37.5523 31 37 31Z" fill="#CAC6DD"/>
<rect x="4.5" y="4.5" width="47" height="47" rx="23.5" stroke="url(#paint0_linear_701_30570)" stroke-opacity="0.15"/>
<defs>
<linearGradient id="paint0_linear_701_30570" x1="28" y1="4" x2="28" y2="52" gradientUnits="userSpaceOnUse">
<stop stop-color="white"/>
<stop offset="0.560128" stop-color="white" stop-opacity="0"/>
</linearGradient>
</defs>
</svg>
