<svg xmlns="http://www.w3.org/2000/svg" xmlns:xlink="http://www.w3.org/1999/xlink" width="40" zoomAndPan="magnify" viewBox="0 0 30 30.000001" height="40" preserveAspectRatio="xMidYMid meet" version="1.0"><defs><clipPath id="cbaa6bc836"><path d="M 0.484375 6 L 11 6 L 11 19 L 0.484375 19 Z M 0.484375 6 " clip-rule="nonzero"/></clipPath><clipPath id="610fa57de8"><path d="M 19 10 L 29.515625 10 L 29.515625 23 L 19 23 Z M 19 10 " clip-rule="nonzero"/></clipPath></defs><g clip-path="url(#cbaa6bc836)"><path fill="#ffffff" d="M 10.414062 18.769531 L 2.949219 6.382812 C 1.382812 8.699219 0.46875 11.488281 0.46875 14.488281 C 0.46875 15.976562 0.695312 17.417969 1.117188 18.769531 Z M 10.414062 18.769531 " fill-opacity="1" fill-rule="nonzero"/></g><path fill="#ffffff" d="M 13.550781 8.339844 L 28.101562 8.339844 C 26.230469 4.363281 22.613281 1.371094 18.238281 0.359375 Z M 13.550781 8.339844 " fill-opacity="1" fill-rule="nonzero"/><path fill="#ffffff" d="M 8.878906 12.828125 L 16.386719 0.0546875 C 15.921875 0.0078125 15.449219 -0.015625 14.972656 -0.015625 C 10.648438 -0.015625 6.761719 1.890625 4.101562 4.902344 Z M 8.878906 12.828125 " fill-opacity="1" fill-rule="nonzero"/><path fill="#ffffff" d="M 11.902344 28.53125 L 16.496094 20.523438 L 1.789062 20.523438 C 3.71875 24.71875 7.589844 27.839844 12.246094 28.730469 Z M 11.902344 28.53125 " fill-opacity="1" fill-rule="nonzero"/><g clip-path="url(#610fa57de8)"><path fill="#ffffff" d="M 19.503906 10.089844 L 26.835938 22.8125 C 28.496094 20.453125 29.472656 17.582031 29.472656 14.488281 C 29.472656 12.953125 29.234375 11.476562 28.789062 10.089844 Z M 19.503906 10.089844 " fill-opacity="1" fill-rule="nonzero"/></g><path fill="#ffffff" d="M 21 16.195312 L 13.695312 28.929688 C 14.117188 28.96875 14.542969 28.988281 14.972656 28.988281 C 19.195312 28.988281 23.003906 27.171875 25.65625 24.277344 Z M 21 16.195312 " fill-opacity="1" fill-rule="nonzero"/></svg>