<svg xmlns="http://www.w3.org/2000/svg" xmlns:xlink="http://www.w3.org/1999/xlink" width="80" zoomAndPan="magnify" viewBox="0 0 60 60" height="80" preserveAspectRatio="xMidYMid meet" version="1.0"><defs><clipPath id="b057853643"><path d="M 0 2.511719 L 60 2.511719 L 60 57.261719 L 0 57.261719 Z M 0 2.511719 " clip-rule="nonzero"/></clipPath></defs><g clip-path="url(#b057853643)"><path fill="#000000" d="M 18.867188 39.011719 C 18.6875 39.011719 18.535156 39.078125 18.410156 39.203125 C 18.285156 39.328125 18.222656 39.480469 18.222656 39.65625 L 18.222656 47.691406 C 18.222656 47.867188 18.285156 48.019531 18.410156 48.144531 C 18.535156 48.273438 18.6875 48.335938 18.867188 48.335938 C 19.042969 48.335938 19.195312 48.273438 19.320312 48.144531 C 19.445312 48.019531 19.507812 47.867188 19.507812 47.691406 L 19.507812 39.652344 C 19.507812 39.476562 19.445312 39.324219 19.320312 39.199219 C 19.191406 39.078125 19.042969 39.015625 18.867188 39.011719 Z M 22.515625 33.394531 C 22.339844 33.394531 22.1875 33.457031 22.0625 33.582031 C 21.9375 33.707031 21.875 33.859375 21.875 34.035156 L 21.875 53.308594 C 21.875 53.484375 21.9375 53.636719 22.0625 53.761719 C 22.1875 53.886719 22.339844 53.949219 22.515625 53.949219 C 22.695312 53.949219 22.847656 53.886719 22.972656 53.761719 C 23.097656 53.636719 23.160156 53.484375 23.160156 53.308594 L 23.160156 34.03125 C 23.160156 33.855469 23.097656 33.703125 22.972656 33.578125 C 22.847656 33.453125 22.695312 33.390625 22.515625 33.390625 Z M 29.886719 29.855469 C 29.710938 29.855469 29.558594 29.917969 29.433594 30.042969 C 29.304688 30.167969 29.242188 30.320312 29.242188 30.5 L 29.242188 56.847656 C 29.242188 57.023438 29.304688 57.175781 29.433594 57.300781 C 29.558594 57.429688 29.710938 57.492188 29.886719 57.492188 C 30.066406 57.492188 30.214844 57.429688 30.34375 57.300781 C 30.46875 57.175781 30.53125 57.023438 30.53125 56.847656 L 30.53125 30.492188 C 30.53125 30.316406 30.46875 30.164062 30.34375 30.039062 C 30.214844 29.914062 30.066406 29.851562 29.886719 29.851562 Z M 14.820312 40.175781 C 14.640625 40.175781 14.488281 40.238281 14.363281 40.363281 C 14.238281 40.488281 14.175781 40.640625 14.175781 40.820312 L 14.175781 46.523438 C 14.175781 46.699219 14.238281 46.851562 14.363281 46.976562 C 14.488281 47.101562 14.640625 47.164062 14.820312 47.164062 C 14.996094 47.164062 15.148438 47.101562 15.273438 46.976562 C 15.398438 46.851562 15.460938 46.699219 15.460938 46.523438 L 15.460938 40.820312 C 15.460938 40.640625 15.398438 40.488281 15.273438 40.363281 C 15.148438 40.238281 14.996094 40.175781 14.820312 40.175781 Z M 2.003906 40.652344 C 1.726562 40.714844 1.460938 40.824219 1.21875 40.976562 C 0.972656 41.128906 0.761719 41.316406 0.578125 41.539062 C 0.398438 41.761719 0.257812 42.007812 0.160156 42.277344 C 0.0585938 42.550781 0.0078125 42.828125 0.00390625 43.117188 L 0.00390625 48.167969 C 0.0078125 48.457031 0.0585938 48.734375 0.160156 49.003906 C 0.257812 49.277344 0.398438 49.523438 0.578125 49.746094 C 0.761719 49.96875 0.972656 50.15625 1.21875 50.308594 C 1.460938 50.460938 1.726562 50.570312 2.003906 50.632812 C 2.328125 50.710938 2.652344 50.519531 2.652344 50.261719 L 2.652344 41.023438 C 2.652344 40.765625 2.328125 40.574219 2.003906 40.652344 Z M 26.3125 36.375 C 26.136719 36.375 25.984375 36.4375 25.859375 36.5625 C 25.734375 36.6875 25.671875 36.839844 25.671875 37.019531 L 25.671875 50.320312 C 25.671875 50.5 25.734375 50.652344 25.859375 50.777344 C 25.984375 50.902344 26.136719 50.964844 26.3125 50.964844 C 26.492188 50.964844 26.644531 50.902344 26.769531 50.777344 C 26.894531 50.652344 26.957031 50.5 26.957031 50.320312 L 26.957031 37.019531 C 26.957031 36.839844 26.894531 36.6875 26.769531 36.5625 C 26.644531 36.4375 26.492188 36.375 26.3125 36.375 Z M 57.589844 31.988281 L 57.613281 31.761719 L 57.613281 31.523438 L 57.621094 31.046875 C 57.621094 30.730469 57.640625 30.40625 57.632812 30.09375 L 57.605469 29.15625 C 57.597656 29 57.597656 28.839844 57.585938 28.683594 L 57.546875 28.214844 C 57.515625 27.902344 57.492188 27.589844 57.460938 27.277344 L 57.332031 26.339844 C 57.308594 26.183594 57.289062 26.027344 57.261719 25.871094 L 57.171875 25.40625 C 56.941406 24.15625 56.617188 22.929688 56.199219 21.730469 L 55.867188 20.835938 C 55.757812 20.535156 55.621094 20.25 55.503906 19.953125 L 55.316406 19.515625 C 55.257812 19.371094 55.175781 19.230469 55.113281 19.085938 L 54.691406 18.226562 C 54.09375 17.105469 53.429688 16.023438 52.707031 14.980469 C 51.980469 13.949219 51.199219 12.960938 50.367188 12.011719 L 50.058594 11.65625 C 49.953125 11.535156 49.839844 11.421875 49.730469 11.304688 L 49.074219 10.605469 L 48.382812 9.941406 L 48.035156 9.609375 L 47.675781 9.292969 C 47.429688 9.085938 47.191406 8.863281 46.945312 8.667969 L 46.191406 8.070312 C 45.941406 7.867188 45.679688 7.683594 45.417969 7.5 C 45.15625 7.3125 44.894531 7.121094 44.625 6.949219 L 43.8125 6.429688 C 43.542969 6.25 43.253906 6.105469 42.976562 5.945312 L 42.554688 5.707031 L 42.34375 5.589844 L 42.128906 5.484375 L 41.261719 5.054688 C 40.972656 4.910156 40.671875 4.792969 40.375 4.660156 C 40.082031 4.53125 39.785156 4.402344 39.480469 4.292969 L 38.574219 3.953125 C 38.269531 3.851562 37.957031 3.757812 37.648438 3.660156 L 37.1875 3.515625 C 37.03125 3.472656 36.875 3.4375 36.714844 3.398438 L 35.773438 3.160156 L 34.820312 2.964844 L 34.347656 2.875 L 33.859375 2.808594 L 32.902344 2.679688 L 31.9375 2.597656 L 31.453125 2.558594 L 30.96875 2.535156 L 30 2.511719 L 29.027344 2.542969 L 28.542969 2.558594 L 28.058594 2.59375 L 27.09375 2.679688 L 26.132812 2.808594 L 25.652344 2.878906 L 25.175781 2.96875 L 24.222656 3.15625 L 23.277344 3.394531 C 23.121094 3.4375 22.960938 3.472656 22.804688 3.515625 L 22.34375 3.660156 C 22.035156 3.757812 21.726562 3.847656 21.421875 3.953125 L 20.511719 4.292969 C 20.207031 4.402344 19.914062 4.535156 19.617188 4.660156 C 19.320312 4.789062 19.019531 4.910156 18.730469 5.054688 L 17.867188 5.484375 L 17.648438 5.59375 L 17.015625 5.945312 C 16.445312 6.246094 15.910156 6.605469 15.371094 6.945312 C 15.097656 7.121094 14.84375 7.316406 14.578125 7.496094 C 14.3125 7.679688 14.050781 7.867188 13.804688 8.070312 L 13.046875 8.664062 C 12.800781 8.871094 12.5625 9.082031 12.320312 9.292969 L 11.957031 9.609375 L 11.609375 9.9375 L 10.917969 10.605469 L 10.265625 11.300781 C 10.15625 11.421875 10.042969 11.535156 9.9375 11.652344 L 9.628906 12.007812 C 8.796875 12.957031 8.019531 13.949219 7.292969 14.980469 C 6.570312 16.027344 5.910156 17.109375 5.3125 18.230469 C 5.035156 18.800781 4.738281 19.363281 4.496094 19.957031 C 4.375 20.25 4.238281 20.535156 4.128906 20.835938 L 3.800781 21.730469 C 3.378906 22.929688 3.050781 24.15625 2.820312 25.40625 L 2.730469 25.871094 C 2.703125 26.027344 2.683594 26.183594 2.664062 26.339844 L 2.535156 27.285156 C 2.5 27.597656 2.476562 27.910156 2.449219 28.222656 L 2.410156 28.691406 C 2.394531 28.847656 2.394531 29.007812 2.390625 29.160156 L 2.359375 30.101562 C 2.359375 30.414062 2.359375 30.738281 2.371094 31.054688 L 2.378906 31.53125 L 2.378906 31.769531 L 2.402344 31.996094 L 2.507812 32.898438 C 2.777344 35.261719 3.054688 37.621094 3.355469 39.980469 L 3.355469 51.683594 C 3.355469 52.144531 3.445312 52.589844 3.621094 53.015625 C 3.796875 53.441406 4.050781 53.820312 4.375 54.144531 C 4.703125 54.472656 5.082031 54.722656 5.507812 54.902344 C 5.933594 55.078125 6.378906 55.167969 6.839844 55.167969 C 7.304688 55.167969 7.746094 55.078125 8.175781 54.902344 C 8.601562 54.722656 8.976562 54.472656 9.304688 54.144531 C 9.632812 53.820312 9.882812 53.441406 10.058594 53.015625 C 10.238281 52.589844 10.324219 52.144531 10.324219 51.683594 L 10.324219 39.742188 C 10.324219 39.394531 10.277344 39.054688 10.175781 38.71875 C 10.074219 38.386719 9.925781 38.078125 9.730469 37.789062 C 9.535156 37.5 9.304688 37.25 9.035156 37.03125 C 8.761719 36.8125 8.46875 36.636719 8.144531 36.507812 C 7.824219 36.378906 7.488281 36.296875 7.140625 36.269531 C 6.796875 36.238281 6.453125 36.261719 6.113281 36.335938 C 5.773438 36.40625 5.453125 36.53125 5.148438 36.699219 C 4.84375 36.867188 4.574219 37.078125 4.332031 37.328125 C 4.3125 35.828125 4.285156 34.328125 4.253906 32.828125 L 4.234375 31.925781 L 4.234375 31.699219 L 4.246094 31.484375 L 4.277344 31.054688 C 4.300781 30.769531 4.3125 30.484375 4.34375 30.199219 L 4.445312 29.328125 C 4.464844 29.1875 4.476562 29.042969 4.5 28.898438 L 4.570312 28.472656 C 4.621094 28.183594 4.664062 27.898438 4.714844 27.613281 L 4.898438 26.765625 C 4.929688 26.621094 4.957031 26.476562 4.992188 26.335938 L 5.105469 25.917969 C 5.183594 25.640625 5.25 25.359375 5.335938 25.085938 L 5.605469 24.265625 C 5.6875 23.992188 5.796875 23.726562 5.890625 23.457031 L 6.042969 23.054688 C 6.09375 22.917969 6.144531 22.785156 6.207031 22.65625 C 6.660156 21.601562 7.175781 20.582031 7.753906 19.59375 C 8.957031 17.613281 10.359375 15.792969 11.964844 14.125 L 12.261719 13.804688 C 12.359375 13.703125 12.464844 13.605469 12.566406 13.503906 L 13.175781 12.90625 L 13.808594 12.335938 L 14.128906 12.046875 L 14.457031 11.777344 C 14.679688 11.601562 14.894531 11.414062 15.117188 11.242188 L 15.800781 10.734375 C 16.027344 10.5625 16.261719 10.410156 16.5 10.25 C 16.734375 10.09375 16.964844 9.929688 17.214844 9.785156 L 17.941406 9.355469 C 18.0625 9.28125 18.183594 9.214844 18.308594 9.148438 L 18.683594 8.949219 L 19.054688 8.746094 L 19.242188 8.648438 L 19.433594 8.558594 L 20.195312 8.195312 C 20.449219 8.074219 20.714844 7.976562 20.972656 7.867188 C 21.234375 7.753906 21.492188 7.644531 21.757812 7.558594 L 22.554688 7.273438 C 22.820312 7.1875 23.09375 7.113281 23.359375 7.03125 L 23.765625 6.914062 C 23.902344 6.875 24.039062 6.84375 24.171875 6.8125 L 24.992188 6.609375 L 25.820312 6.453125 L 26.230469 6.375 L 26.648438 6.320312 L 27.484375 6.207031 L 28.320312 6.144531 L 28.742188 6.113281 L 29.171875 6.101562 L 30.011719 6.082031 L 30.851562 6.101562 L 31.273438 6.113281 L 31.695312 6.144531 L 32.53125 6.210938 L 33.785156 6.375 L 34.195312 6.453125 L 35.003906 6.617188 L 35.824219 6.816406 C 35.960938 6.851562 36.097656 6.882812 36.230469 6.921875 L 36.632812 7.042969 C 36.902344 7.121094 37.175781 7.195312 37.441406 7.28125 L 38.238281 7.570312 C 38.503906 7.65625 38.761719 7.769531 39.023438 7.875 C 39.28125 7.984375 39.546875 8.085938 39.800781 8.207031 L 40.5625 8.566406 L 40.753906 8.65625 L 40.941406 8.757812 L 41.3125 8.957031 C 41.816406 9.214844 42.292969 9.515625 42.78125 9.804688 C 43.023438 9.945312 43.253906 10.113281 43.496094 10.269531 C 43.738281 10.421875 43.96875 10.578125 44.191406 10.753906 L 44.875 11.257812 C 45.101562 11.429688 45.316406 11.617188 45.539062 11.792969 L 45.867188 12.0625 L 46.183594 12.351562 L 46.820312 12.921875 L 47.429688 13.519531 C 47.53125 13.621094 47.632812 13.71875 47.734375 13.820312 L 48.03125 14.136719 C 49.628906 15.808594 51.03125 17.628906 52.230469 19.605469 L 52.648438 20.351562 C 52.71875 20.480469 52.792969 20.601562 52.855469 20.730469 L 53.050781 21.113281 C 53.175781 21.367188 53.316406 21.621094 53.429688 21.882812 L 53.777344 22.667969 C 53.839844 22.796875 53.890625 22.929688 53.941406 23.066406 L 54.09375 23.46875 C 54.195312 23.734375 54.304688 24.003906 54.378906 24.277344 L 54.648438 25.097656 C 54.730469 25.371094 54.800781 25.652344 54.878906 25.929688 L 54.988281 26.347656 C 55.027344 26.488281 55.054688 26.632812 55.085938 26.777344 L 55.269531 27.625 C 55.320312 27.910156 55.363281 28.195312 55.414062 28.484375 L 55.484375 28.910156 C 55.507812 29.054688 55.519531 29.199219 55.539062 29.339844 L 55.640625 30.210938 C 55.671875 30.496094 55.683594 30.78125 55.707031 31.066406 L 55.734375 31.496094 L 55.75 31.710938 L 55.75 31.9375 L 55.730469 32.839844 C 55.703125 34.339844 55.675781 35.839844 55.652344 37.339844 C 54.964844 36.582031 54.109375 36.203125 53.085938 36.203125 C 52.625 36.203125 52.179688 36.292969 51.753906 36.46875 C 51.328125 36.644531 50.953125 36.898438 50.625 37.222656 C 50.296875 37.546875 50.046875 37.921875 49.867188 38.347656 C 49.691406 38.773438 49.597656 39.214844 49.597656 39.675781 L 49.597656 51.609375 C 49.597656 52.070312 49.6875 52.515625 49.863281 52.941406 C 50.042969 53.367188 50.292969 53.746094 50.621094 54.070312 C 50.945312 54.398438 51.324219 54.648438 51.75 54.828125 C 52.175781 55.003906 52.617188 55.09375 53.082031 55.09375 C 53.542969 55.09375 53.984375 55.003906 54.414062 54.828125 C 54.839844 54.648438 55.214844 54.398438 55.542969 54.070312 C 55.867188 53.746094 56.121094 53.367188 56.296875 52.941406 C 56.472656 52.515625 56.5625 52.070312 56.566406 51.609375 L 56.566406 40.484375 L 56.613281 40.117188 C 56.917969 37.714844 57.203125 35.304688 57.480469 32.894531 Z M 57.992188 40.714844 C 57.671875 40.636719 57.34375 40.828125 57.34375 41.085938 L 57.34375 50.324219 C 57.34375 50.582031 57.671875 50.777344 57.992188 50.699219 C 58.269531 50.632812 58.53125 50.523438 58.777344 50.371094 C 59.019531 50.21875 59.234375 50.03125 59.414062 49.808594 C 59.59375 49.585938 59.734375 49.339844 59.832031 49.070312 C 59.929688 48.800781 59.980469 48.519531 59.988281 48.234375 L 59.988281 43.179688 C 59.980469 42.894531 59.929688 42.613281 59.832031 42.34375 C 59.734375 42.074219 59.59375 41.828125 59.414062 41.605469 C 59.234375 41.382812 59.019531 41.195312 58.777344 41.042969 C 58.53125 40.890625 58.269531 40.78125 57.992188 40.714844 Z M 33.683594 36.375 C 33.503906 36.375 33.355469 36.4375 33.226562 36.5625 C 33.101562 36.6875 33.039062 36.839844 33.039062 37.019531 L 33.039062 50.320312 C 33.039062 50.5 33.101562 50.652344 33.226562 50.777344 C 33.355469 50.902344 33.503906 50.964844 33.683594 50.964844 C 33.859375 50.964844 34.011719 50.902344 34.136719 50.777344 C 34.265625 50.652344 34.328125 50.5 34.328125 50.320312 L 34.328125 37.019531 C 34.328125 36.839844 34.265625 36.6875 34.136719 36.5625 C 34.011719 36.4375 33.859375 36.375 33.683594 36.375 Z M 45.179688 40.175781 C 45 40.175781 44.847656 40.238281 44.722656 40.363281 C 44.597656 40.488281 44.535156 40.640625 44.535156 40.820312 L 44.535156 46.523438 C 44.535156 46.699219 44.597656 46.851562 44.722656 46.976562 C 44.847656 47.101562 45 47.164062 45.179688 47.164062 C 45.355469 47.164062 45.507812 47.101562 45.632812 46.976562 C 45.757812 46.851562 45.824219 46.699219 45.824219 46.523438 L 45.824219 40.820312 C 45.824219 40.640625 45.757812 40.488281 45.632812 40.363281 C 45.507812 40.238281 45.355469 40.175781 45.179688 40.175781 Z M 37.480469 33.390625 C 37.300781 33.390625 37.152344 33.453125 37.023438 33.578125 C 36.898438 33.703125 36.835938 33.855469 36.835938 34.03125 L 36.835938 53.308594 C 36.835938 53.484375 36.898438 53.636719 37.023438 53.761719 C 37.152344 53.886719 37.300781 53.949219 37.480469 53.949219 C 37.65625 53.949219 37.808594 53.886719 37.933594 53.761719 C 38.0625 53.636719 38.125 53.484375 38.125 53.308594 L 38.125 34.03125 C 38.125 33.855469 38.058594 33.703125 37.933594 33.578125 C 37.808594 33.453125 37.65625 33.390625 37.480469 33.390625 Z M 41.132812 39.011719 C 40.953125 39.015625 40.800781 39.078125 40.675781 39.203125 C 40.550781 39.328125 40.488281 39.480469 40.488281 39.65625 L 40.488281 47.691406 C 40.488281 47.867188 40.550781 48.019531 40.675781 48.144531 C 40.800781 48.273438 40.953125 48.335938 41.132812 48.335938 C 41.308594 48.335938 41.460938 48.273438 41.585938 48.144531 C 41.710938 48.019531 41.777344 47.867188 41.777344 47.691406 L 41.777344 39.652344 C 41.773438 39.476562 41.710938 39.324219 41.585938 39.199219 C 41.460938 39.074219 41.308594 39.011719 41.132812 39.011719 Z M 41.132812 39.011719 " fill-opacity="1" fill-rule="nonzero"/></g></svg>