<svg xmlns="http://www.w3.org/2000/svg" xmlns:xlink="http://www.w3.org/1999/xlink" width="80" zoomAndPan="magnify" viewBox="0 0 60 60" height="80" preserveAspectRatio="xMidYMid meet" version="1.0"><path fill="#000000" d="M 20.523438 38.792969 L 5.097656 13.191406 C 1.859375 17.976562 -0.03125 23.742188 -0.03125 29.941406 C -0.03125 33.019531 0.4375 35.992188 1.304688 38.792969 Z M 20.523438 38.792969 " fill-opacity="1" fill-rule="nonzero"/><path fill="#000000" d="M 27.003906 17.230469 L 57.074219 17.230469 C 53.210938 9.019531 45.730469 2.835938 36.695312 0.746094 Z M 27.003906 17.230469 " fill-opacity="1" fill-rule="nonzero"/><path fill="#000000" d="M 17.351562 26.511719 L 32.867188 0.113281 C 31.902344 0.0195312 30.925781 -0.03125 29.941406 -0.03125 C 21.003906 -0.03125 12.972656 3.902344 7.480469 10.128906 Z M 17.351562 26.511719 " fill-opacity="1" fill-rule="nonzero"/><path fill="#000000" d="M 23.601562 58.96875 L 33.09375 42.414062 L 2.699219 42.414062 C 6.6875 51.085938 14.6875 57.535156 24.308594 59.375 Z M 23.601562 58.96875 " fill-opacity="1" fill-rule="nonzero"/><path fill="#000000" d="M 39.308594 20.855469 L 54.460938 47.144531 C 57.890625 42.269531 59.910156 36.339844 59.910156 29.941406 C 59.910156 26.773438 59.414062 23.722656 58.5 20.855469 Z M 39.308594 20.855469 " fill-opacity="1" fill-rule="nonzero"/><path fill="#000000" d="M 42.398438 33.46875 L 27.304688 59.789062 C 28.175781 59.863281 29.050781 59.910156 29.941406 59.910156 C 38.671875 59.910156 46.542969 56.15625 52.027344 50.175781 Z M 42.398438 33.46875 " fill-opacity="1" fill-rule="nonzero"/></svg>