<svg xmlns="http://www.w3.org/2000/svg" xmlns:xlink="http://www.w3.org/1999/xlink" width="40" zoomAndPan="magnify" viewBox="0 0 30 30.000001" height="40" preserveAspectRatio="xMidYMid meet" version="1.0"><defs><clipPath id="f292ab9797"><path d="M 0.484375 3.828125 L 29.511719 3.828125 L 29.511719 24.878906 L 0.484375 24.878906 Z M 0.484375 3.828125 " clip-rule="nonzero"/></clipPath></defs><g clip-path="url(#f292ab9797)"><path fill="#ffffff" d="M 28.03125 15.339844 C 27.5 16.167969 25.328125 17.015625 24.992188 17.144531 C 24.96875 17.152344 24.949219 17.164062 24.929688 17.171875 C 24.867188 17.203125 24.660156 17.257812 24.359375 16.9375 C 24.09375 16.652344 23.636719 15.9375 23.402344 15.566406 C 23.328125 15.441406 23.382812 15.28125 23.515625 15.230469 L 27.566406 13.691406 C 27.652344 13.660156 27.75 13.683594 27.808594 13.75 C 28.03125 14 28.484375 14.640625 28.03125 15.339844 Z M 26.96875 21.421875 C 26.6875 21.5 26.285156 21.554688 25.726562 21.523438 C 25.527344 21.511719 25.335938 21.433594 25.183594 21.308594 L 23.914062 20.253906 C 23.722656 20.097656 23.757812 19.796875 23.976562 19.683594 C 24.457031 19.445312 25.292969 19.132812 26.332031 19.214844 C 26.773438 19.25 27.15625 19.53125 27.316406 19.941406 C 27.386719 20.117188 27.449219 20.328125 27.492188 20.578125 C 27.558594 20.953125 27.332031 21.316406 26.96875 21.421875 Z M 23.179688 21.597656 L 6.816406 21.597656 C 6.652344 21.597656 6.566406 21.492188 6.679688 21.429688 L 7.417969 21.011719 C 8.253906 20.578125 9.222656 20.539062 9.605469 20.542969 C 10.035156 20.550781 10.464844 20.550781 10.894531 20.550781 L 19.101562 20.550781 C 19.53125 20.550781 19.960938 20.550781 20.390625 20.542969 C 20.773438 20.539062 21.746094 20.578125 22.582031 21.011719 L 23.320312 21.429688 C 23.429688 21.492188 23.34375 21.597656 23.179688 21.597656 Z M 6.59375 15.566406 C 6.363281 15.9375 5.90625 16.652344 5.640625 16.9375 C 5.335938 17.257812 5.132812 17.203125 5.070312 17.171875 C 5.046875 17.164062 5.027344 17.152344 5.003906 17.144531 C 4.667969 17.015625 2.5 16.167969 1.964844 15.339844 C 1.515625 14.640625 1.964844 14 2.1875 13.75 C 2.25 13.683594 2.34375 13.660156 2.429688 13.691406 L 6.480469 15.230469 C 6.617188 15.28125 6.667969 15.441406 6.59375 15.566406 Z M 6.082031 20.253906 L 4.8125 21.308594 C 4.660156 21.433594 4.46875 21.511719 4.273438 21.523438 C 3.710938 21.554688 3.308594 21.5 3.027344 21.421875 C 2.664062 21.316406 2.4375 20.953125 2.503906 20.578125 C 2.546875 20.328125 2.613281 20.117188 2.679688 19.941406 C 2.84375 19.53125 3.226562 19.25 3.664062 19.214844 C 4.703125 19.132812 5.542969 19.445312 6.019531 19.683594 C 6.238281 19.796875 6.273438 20.097656 6.082031 20.253906 Z M 22.425781 17.925781 C 22.101562 18.210938 21.578125 18.523438 20.746094 18.660156 C 20.746094 18.660156 18.609375 19.042969 15 19.042969 C 11.386719 19.042969 9.25 18.660156 9.25 18.660156 C 8.421875 18.523438 7.894531 18.210938 7.570312 17.925781 C 7.253906 17.644531 7.1875 17.175781 7.40625 16.816406 L 7.585938 16.53125 C 7.914062 15.992188 8.460938 15.625 9.082031 15.523438 C 10.417969 15.308594 12.523438 15.292969 13.828125 15.308594 C 14.601562 15.316406 15.371094 15.316406 16.140625 15.308594 C 17.445312 15.292969 19.570312 15.304688 20.914062 15.523438 C 21.535156 15.625 22.082031 15.992188 22.414062 16.53125 L 22.589844 16.816406 C 22.8125 17.175781 22.742188 17.644531 22.425781 17.925781 Z M 5.292969 9.242188 C 5.429688 8.808594 5.886719 7.683594 7.304688 5.699219 C 7.597656 5.289062 8.054688 5.035156 8.558594 5 C 9.855469 4.914062 12.550781 4.753906 15 4.753906 C 17.445312 4.753906 20.140625 4.914062 21.4375 5 C 21.941406 5.035156 22.402344 5.289062 22.695312 5.699219 C 24.109375 7.683594 24.566406 8.808594 24.707031 9.242188 C 24.738281 9.347656 24.660156 9.453125 24.550781 9.453125 L 15 9.304688 L 5.445312 9.453125 C 5.335938 9.453125 5.257812 9.347656 5.292969 9.242188 Z M 29.511719 21.890625 L 29.394531 15.003906 C 29.320312 12.980469 26.511719 10.386719 26.511719 10.386719 C 26.796875 10.234375 27.117188 10.144531 27.441406 10.128906 C 27.898438 10.109375 28.550781 9.949219 28.394531 9.179688 C 28.222656 8.332031 26.925781 8.128906 26.234375 8.082031 C 26.019531 8.066406 25.847656 8.261719 25.890625 8.476562 L 26.132812 9.644531 C 26.132812 9.644531 26.132812 9.644531 26.132812 9.648438 C 26.152344 9.734375 26.03125 9.777344 25.984375 9.703125 L 25.769531 9.339844 C 24.074219 6.429688 23.332031 5.398438 22.710938 4.867188 C 22.429688 4.625 22.089844 4.457031 21.726562 4.375 C 19.039062 3.777344 15 3.832031 15 3.832031 C 15 3.832031 10.957031 3.777344 8.269531 4.375 C 7.90625 4.457031 7.566406 4.625 7.285156 4.867188 C 6.664062 5.398438 5.921875 6.429688 4.226562 9.339844 L 4.011719 9.703125 C 3.964844 9.777344 3.847656 9.734375 3.863281 9.648438 C 3.863281 9.644531 3.863281 9.644531 3.863281 9.644531 L 4.105469 8.476562 C 4.148438 8.261719 3.976562 8.066406 3.761719 8.082031 C 3.074219 8.128906 1.773438 8.332031 1.601562 9.179688 C 1.445312 9.949219 2.097656 10.109375 2.558594 10.128906 C 2.882812 10.144531 3.199219 10.234375 3.484375 10.386719 C 3.484375 10.386719 0.675781 12.980469 0.601562 15.003906 L 0.484375 21.890625 C 0.480469 22.179688 0.59375 22.453125 0.792969 22.648438 L 0.792969 23.449219 C 0.792969 24.410156 1.578125 25.195312 2.535156 25.195312 L 5.734375 25.195312 C 6.386719 25.195312 6.917969 24.664062 6.917969 24.011719 L 6.917969 23.511719 L 23.078125 23.511719 L 23.078125 24.011719 C 23.078125 24.664062 23.613281 25.195312 24.261719 25.195312 L 27.460938 25.195312 C 28.417969 25.195312 29.203125 24.410156 29.203125 23.449219 L 29.203125 22.648438 C 29.40625 22.453125 29.519531 22.179688 29.511719 21.890625 " fill-opacity="1" fill-rule="nonzero"/></g></svg>