<svg xmlns="http://www.w3.org/2000/svg" xmlns:xlink="http://www.w3.org/1999/xlink" width="40" zoomAndPan="magnify" viewBox="0 0 30 30.000001" height="40" preserveAspectRatio="xMidYMid meet" version="1.0"><defs><clipPath id="74ecceab15"><path d="M 0.484375 1.214844 L 29.515625 1.214844 L 29.515625 28.070312 L 0.484375 28.070312 Z M 0.484375 1.214844 " clip-rule="nonzero"/></clipPath></defs><g clip-path="url(#74ecceab15)"><path fill="#ffffff" d="M 9.613281 19.046875 C 9.527344 19.046875 9.453125 19.078125 9.394531 19.140625 C 9.332031 19.199219 9.300781 19.273438 9.300781 19.363281 L 9.300781 23.285156 C 9.300781 23.371094 9.332031 23.445312 9.394531 23.507812 C 9.453125 23.570312 9.527344 23.601562 9.613281 23.601562 C 9.699219 23.601562 9.773438 23.570312 9.832031 23.507812 C 9.894531 23.445312 9.925781 23.371094 9.925781 23.285156 L 9.925781 19.359375 C 9.925781 19.273438 9.894531 19.199219 9.832031 19.136719 C 9.773438 19.078125 9.699219 19.046875 9.613281 19.046875 Z M 11.378906 16.300781 C 11.292969 16.300781 11.222656 16.332031 11.160156 16.394531 C 11.097656 16.453125 11.070312 16.527344 11.070312 16.617188 L 11.070312 26.03125 C 11.070312 26.117188 11.097656 26.191406 11.160156 26.25 C 11.21875 26.3125 11.292969 26.34375 11.378906 26.34375 C 11.464844 26.34375 11.539062 26.3125 11.601562 26.25 C 11.660156 26.191406 11.691406 26.117188 11.691406 26.03125 L 11.691406 16.613281 C 11.691406 16.527344 11.660156 16.453125 11.601562 16.390625 C 11.539062 16.328125 11.464844 16.300781 11.378906 16.300781 Z M 14.945312 14.574219 C 14.859375 14.574219 14.785156 14.601562 14.726562 14.664062 C 14.664062 14.726562 14.632812 14.800781 14.632812 14.886719 L 14.632812 27.757812 C 14.632812 27.847656 14.664062 27.917969 14.726562 27.980469 C 14.785156 28.042969 14.859375 28.074219 14.945312 28.074219 C 15.03125 28.074219 15.105469 28.042969 15.164062 27.980469 C 15.226562 27.917969 15.257812 27.847656 15.257812 27.757812 L 15.257812 14.886719 C 15.257812 14.796875 15.226562 14.722656 15.164062 14.664062 C 15.105469 14.601562 15.03125 14.570312 14.945312 14.570312 Z M 7.65625 19.613281 C 7.570312 19.613281 7.496094 19.644531 7.433594 19.707031 C 7.375 19.769531 7.34375 19.84375 7.34375 19.929688 L 7.34375 22.714844 C 7.34375 22.800781 7.375 22.875 7.433594 22.9375 C 7.496094 23 7.570312 23.03125 7.65625 23.03125 C 7.742188 23.03125 7.816406 23 7.875 22.9375 C 7.9375 22.875 7.96875 22.800781 7.96875 22.714844 L 7.96875 19.929688 C 7.96875 19.84375 7.9375 19.769531 7.875 19.707031 C 7.816406 19.644531 7.742188 19.613281 7.65625 19.613281 Z M 1.457031 19.847656 C 1.179688 19.910156 0.949219 20.054688 0.765625 20.28125 C 0.585938 20.503906 0.492188 20.761719 0.488281 21.050781 L 0.488281 23.519531 C 0.492188 23.808594 0.585938 24.066406 0.765625 24.289062 C 0.949219 24.515625 1.179688 24.660156 1.457031 24.722656 C 1.613281 24.761719 1.769531 24.667969 1.769531 24.542969 L 1.769531 20.027344 C 1.769531 19.902344 1.613281 19.808594 1.457031 19.847656 Z M 13.214844 17.757812 C 13.128906 17.757812 13.058594 17.789062 12.996094 17.851562 C 12.9375 17.910156 12.90625 17.984375 12.90625 18.070312 L 12.90625 24.570312 C 12.90625 24.65625 12.9375 24.730469 12.996094 24.792969 C 13.058594 24.855469 13.128906 24.886719 13.214844 24.886719 C 13.300781 24.886719 13.375 24.855469 13.4375 24.792969 C 13.496094 24.730469 13.527344 24.65625 13.527344 24.570312 L 13.527344 18.070312 C 13.527344 17.984375 13.496094 17.910156 13.4375 17.851562 C 13.375 17.789062 13.300781 17.757812 13.214844 17.757812 Z M 28.347656 15.613281 L 28.359375 15.503906 L 28.359375 15.386719 L 28.363281 15.15625 C 28.363281 15 28.371094 14.84375 28.367188 14.6875 L 28.355469 14.230469 C 28.351562 14.15625 28.351562 14.078125 28.34375 14 L 28.324219 13.773438 C 28.3125 13.621094 28.300781 13.464844 28.285156 13.3125 L 28.222656 12.855469 C 28.210938 12.78125 28.203125 12.703125 28.1875 12.628906 L 28.144531 12.398438 C 28.035156 11.789062 27.875 11.191406 27.671875 10.605469 L 27.511719 10.167969 C 27.460938 10.019531 27.394531 9.878906 27.335938 9.734375 L 27.246094 9.523438 C 27.21875 9.453125 27.179688 9.382812 27.148438 9.3125 L 26.945312 8.894531 C 26.65625 8.34375 26.335938 7.816406 25.984375 7.308594 C 25.632812 6.804688 25.253906 6.320312 24.851562 5.855469 L 24.703125 5.683594 C 24.652344 5.625 24.597656 5.566406 24.546875 5.511719 L 24.226562 5.167969 L 23.894531 4.84375 L 23.726562 4.683594 L 23.550781 4.527344 C 23.433594 4.425781 23.316406 4.320312 23.199219 4.222656 L 22.832031 3.929688 C 22.710938 3.832031 22.585938 3.742188 22.457031 3.652344 C 22.332031 3.5625 22.207031 3.46875 22.074219 3.382812 L 21.679688 3.128906 C 21.550781 3.042969 21.414062 2.972656 21.277344 2.890625 L 21.074219 2.777344 L 20.972656 2.71875 L 20.867188 2.667969 L 20.449219 2.457031 C 20.308594 2.386719 20.164062 2.328125 20.019531 2.265625 C 19.878906 2.199219 19.734375 2.136719 19.585938 2.085938 L 19.148438 1.921875 C 19 1.867188 18.851562 1.824219 18.699219 1.777344 L 18.476562 1.707031 C 18.402344 1.683594 18.324219 1.667969 18.25 1.648438 L 17.792969 1.53125 L 17.101562 1.390625 L 16.867188 1.359375 L 16.40625 1.296875 L 15.703125 1.238281 L 15.46875 1.226562 L 15 1.214844 L 14.296875 1.238281 L 13.59375 1.296875 L 13.128906 1.359375 L 12.894531 1.394531 L 12.664062 1.4375 L 12.203125 1.53125 L 11.746094 1.648438 C 11.671875 1.667969 11.59375 1.683594 11.519531 1.707031 L 11.296875 1.777344 C 11.148438 1.824219 10.996094 1.867188 10.847656 1.921875 L 10.410156 2.085938 C 10.261719 2.136719 10.121094 2.203125 9.976562 2.265625 C 9.832031 2.328125 9.6875 2.386719 9.550781 2.457031 L 9.128906 2.667969 L 9.023438 2.71875 L 8.71875 2.894531 C 8.441406 3.039062 8.183594 3.214844 7.921875 3.382812 C 7.789062 3.464844 7.667969 3.5625 7.539062 3.652344 C 7.410156 3.742188 7.285156 3.832031 7.164062 3.929688 L 6.800781 4.222656 C 6.679688 4.320312 6.5625 4.425781 6.445312 4.527344 L 6.273438 4.683594 L 6.101562 4.84375 L 5.769531 5.167969 L 5.453125 5.511719 C 5.398438 5.566406 5.347656 5.625 5.292969 5.679688 L 5.144531 5.855469 C 4.742188 6.320312 4.367188 6.800781 4.015625 7.308594 C 3.664062 7.816406 3.34375 8.347656 3.054688 8.894531 C 2.921875 9.171875 2.78125 9.449219 2.664062 9.738281 C 2.601562 9.878906 2.539062 10.019531 2.484375 10.167969 L 2.324219 10.605469 C 2.121094 11.191406 1.964844 11.789062 1.851562 12.398438 L 1.808594 12.628906 C 1.796875 12.703125 1.785156 12.78125 1.773438 12.855469 L 1.710938 13.316406 C 1.695312 13.46875 1.683594 13.621094 1.671875 13.777344 L 1.652344 14.003906 C 1.644531 14.082031 1.644531 14.15625 1.644531 14.234375 L 1.628906 14.691406 C 1.628906 14.847656 1.628906 15.003906 1.632812 15.160156 L 1.636719 15.390625 L 1.636719 15.507812 L 1.648438 15.617188 L 1.699219 16.058594 C 1.832031 17.214844 1.964844 18.367188 2.109375 19.519531 L 2.109375 25.234375 C 2.109375 25.460938 2.152344 25.679688 2.238281 25.886719 C 2.324219 26.09375 2.445312 26.28125 2.605469 26.4375 C 2.761719 26.597656 2.945312 26.722656 3.152344 26.808594 C 3.359375 26.894531 3.574219 26.9375 3.796875 26.9375 C 4.019531 26.9375 4.234375 26.894531 4.441406 26.808594 C 4.648438 26.722656 4.832031 26.597656 4.988281 26.4375 C 5.144531 26.28125 5.269531 26.09375 5.355469 25.886719 C 5.4375 25.679688 5.480469 25.460938 5.480469 25.234375 L 5.480469 19.402344 C 5.484375 19.054688 5.386719 18.738281 5.195312 18.449219 C 5.003906 18.160156 4.746094 17.953125 4.425781 17.824219 C 4.109375 17.691406 3.78125 17.664062 3.445312 17.738281 C 3.109375 17.8125 2.820312 17.972656 2.582031 18.222656 C 2.574219 17.492188 2.558594 16.757812 2.542969 16.023438 L 2.535156 15.585938 L 2.535156 15.472656 L 2.542969 15.371094 L 2.558594 15.160156 C 2.566406 15.019531 2.574219 14.878906 2.589844 14.742188 L 2.636719 14.316406 C 2.648438 14.246094 2.652344 14.175781 2.664062 14.105469 L 2.699219 13.898438 C 2.722656 13.757812 2.742188 13.617188 2.769531 13.476562 L 2.855469 13.0625 C 2.871094 12.992188 2.886719 12.921875 2.902344 12.855469 L 2.957031 12.648438 C 2.996094 12.515625 3.027344 12.378906 3.070312 12.242188 L 3.199219 11.84375 C 3.238281 11.707031 3.289062 11.578125 3.335938 11.445312 L 3.410156 11.25 C 3.433594 11.183594 3.460938 11.121094 3.488281 11.054688 C 3.707031 10.542969 3.957031 10.042969 4.238281 9.558594 C 4.820312 8.59375 5.5 7.703125 6.273438 6.886719 L 6.417969 6.734375 C 6.46875 6.683594 6.515625 6.636719 6.566406 6.585938 L 6.859375 6.292969 L 7.167969 6.015625 L 7.320312 5.875 L 7.480469 5.742188 C 7.585938 5.65625 7.691406 5.566406 7.800781 5.480469 L 8.132812 5.234375 C 8.238281 5.148438 8.355469 5.074219 8.46875 4.996094 C 8.582031 4.917969 8.695312 4.839844 8.816406 4.769531 L 9.167969 4.558594 C 9.226562 4.523438 9.285156 4.488281 9.34375 4.457031 L 9.527344 4.359375 L 9.707031 4.261719 L 9.796875 4.210938 L 9.886719 4.167969 L 10.257812 3.992188 C 10.378906 3.933594 10.507812 3.886719 10.632812 3.832031 C 10.757812 3.777344 10.882812 3.722656 11.011719 3.679688 L 11.398438 3.542969 C 11.527344 3.5 11.660156 3.464844 11.789062 3.421875 L 11.984375 3.363281 C 12.050781 3.347656 12.117188 3.332031 12.179688 3.316406 L 12.578125 3.21875 L 13.175781 3.101562 L 13.378906 3.074219 L 13.78125 3.019531 L 14.390625 2.972656 L 14.597656 2.96875 L 15.003906 2.960938 L 15.414062 2.96875 L 15.617188 2.972656 L 15.820312 2.988281 L 16.226562 3.023438 L 16.628906 3.078125 L 16.832031 3.101562 L 17.03125 3.140625 L 17.421875 3.222656 L 17.816406 3.320312 C 17.882812 3.335938 17.949219 3.351562 18.015625 3.371094 L 18.210938 3.429688 C 18.339844 3.46875 18.472656 3.503906 18.601562 3.546875 L 18.984375 3.6875 C 19.113281 3.730469 19.238281 3.785156 19.363281 3.835938 C 19.492188 3.886719 19.617188 3.9375 19.742188 3.996094 L 20.109375 4.171875 L 20.203125 4.21875 L 20.292969 4.265625 L 20.472656 4.363281 C 20.714844 4.492188 20.945312 4.636719 21.183594 4.777344 C 21.300781 4.847656 21.410156 4.929688 21.527344 5.003906 C 21.648438 5.082031 21.757812 5.15625 21.867188 5.242188 L 22.195312 5.488281 C 22.304688 5.574219 22.410156 5.664062 22.515625 5.75 L 22.675781 5.882812 L 22.828125 6.019531 L 23.136719 6.300781 L 23.429688 6.59375 C 23.480469 6.640625 23.53125 6.6875 23.578125 6.738281 L 23.722656 6.894531 C 24.496094 7.710938 25.175781 8.601562 25.753906 9.566406 L 25.957031 9.929688 C 25.992188 9.992188 26.027344 10.054688 26.058594 10.113281 L 26.152344 10.300781 C 26.210938 10.425781 26.28125 10.550781 26.335938 10.679688 L 26.503906 11.0625 C 26.53125 11.125 26.558594 11.191406 26.582031 11.257812 L 26.65625 11.453125 C 26.703125 11.582031 26.757812 11.714844 26.792969 11.847656 L 26.921875 12.25 C 26.964844 12.382812 26.996094 12.519531 27.035156 12.65625 L 27.089844 12.859375 C 27.105469 12.929688 27.121094 13 27.136719 13.070312 L 27.222656 13.484375 C 27.25 13.621094 27.269531 13.761719 27.292969 13.902344 L 27.328125 14.113281 C 27.339844 14.183594 27.34375 14.25 27.355469 14.320312 L 27.402344 14.746094 C 27.417969 14.886719 27.425781 15.027344 27.433594 15.164062 L 27.457031 15.480469 L 27.457031 15.589844 L 27.449219 16.03125 C 27.433594 16.761719 27.421875 17.496094 27.410156 18.230469 C 27.078125 17.859375 26.664062 17.675781 26.167969 17.675781 C 25.945312 17.675781 25.730469 17.71875 25.523438 17.804688 C 25.316406 17.890625 25.136719 18.011719 24.976562 18.171875 C 24.820312 18.332031 24.699219 18.511719 24.613281 18.722656 C 24.523438 18.929688 24.480469 19.144531 24.480469 19.371094 L 24.480469 25.199219 C 24.480469 25.425781 24.523438 25.644531 24.609375 25.851562 C 24.695312 26.058594 24.816406 26.242188 24.976562 26.402344 C 25.132812 26.5625 25.316406 26.683594 25.519531 26.773438 C 25.726562 26.859375 25.941406 26.902344 26.164062 26.902344 C 26.390625 26.902344 26.605469 26.859375 26.808594 26.773438 C 27.015625 26.683594 27.199219 26.5625 27.355469 26.402344 C 27.515625 26.242188 27.636719 26.058594 27.722656 25.851562 C 27.808594 25.644531 27.851562 25.425781 27.851562 25.199219 L 27.851562 19.765625 L 27.875 19.585938 C 28.023438 18.410156 28.160156 17.234375 28.292969 16.058594 Z M 28.542969 19.878906 C 28.386719 19.839844 28.226562 19.933594 28.226562 20.058594 L 28.226562 24.574219 C 28.226562 24.699219 28.386719 24.792969 28.542969 24.753906 C 28.820312 24.691406 29.050781 24.546875 29.230469 24.320312 C 29.410156 24.097656 29.5 23.839844 29.507812 23.550781 L 29.507812 21.082031 C 29.5 20.792969 29.410156 20.539062 29.230469 20.3125 C 29.050781 20.089844 28.820312 19.945312 28.542969 19.878906 Z M 16.78125 17.757812 C 16.695312 17.757812 16.621094 17.789062 16.5625 17.851562 C 16.5 17.910156 16.46875 17.984375 16.46875 18.070312 L 16.46875 24.570312 C 16.46875 24.65625 16.5 24.730469 16.5625 24.792969 C 16.621094 24.855469 16.695312 24.886719 16.78125 24.886719 C 16.867188 24.886719 16.941406 24.855469 17.003906 24.792969 C 17.0625 24.730469 17.09375 24.65625 17.09375 24.570312 L 17.09375 18.070312 C 17.09375 17.984375 17.0625 17.910156 17 17.851562 C 16.941406 17.789062 16.867188 17.757812 16.78125 17.757812 Z M 22.34375 19.613281 C 22.257812 19.613281 22.183594 19.644531 22.121094 19.707031 C 22.0625 19.769531 22.03125 19.84375 22.03125 19.929688 L 22.03125 22.714844 C 22.03125 22.800781 22.0625 22.875 22.121094 22.9375 C 22.183594 23 22.257812 23.03125 22.34375 23.03125 C 22.429688 23.03125 22.503906 23 22.5625 22.9375 C 22.625 22.875 22.65625 22.800781 22.65625 22.714844 L 22.65625 19.929688 C 22.65625 19.84375 22.625 19.769531 22.5625 19.707031 C 22.503906 19.644531 22.429688 19.613281 22.34375 19.613281 Z M 18.617188 16.300781 C 18.53125 16.300781 18.460938 16.328125 18.398438 16.390625 C 18.335938 16.453125 18.308594 16.527344 18.308594 16.613281 L 18.308594 26.03125 C 18.308594 26.117188 18.335938 26.191406 18.398438 26.25 C 18.460938 26.3125 18.53125 26.34375 18.617188 26.34375 C 18.703125 26.34375 18.777344 26.3125 18.839844 26.25 C 18.898438 26.191406 18.929688 26.117188 18.929688 26.03125 L 18.929688 16.613281 C 18.929688 16.527344 18.898438 16.453125 18.839844 16.390625 C 18.777344 16.332031 18.703125 16.300781 18.617188 16.300781 Z M 20.386719 19.046875 C 20.300781 19.046875 20.226562 19.078125 20.164062 19.140625 C 20.105469 19.199219 20.074219 19.273438 20.074219 19.363281 L 20.074219 23.285156 C 20.074219 23.371094 20.105469 23.445312 20.164062 23.507812 C 20.226562 23.570312 20.300781 23.601562 20.386719 23.601562 C 20.472656 23.601562 20.542969 23.570312 20.605469 23.507812 C 20.667969 23.445312 20.695312 23.371094 20.695312 23.285156 L 20.695312 19.359375 C 20.695312 19.273438 20.664062 19.199219 20.605469 19.136719 C 20.542969 19.078125 20.472656 19.046875 20.386719 19.046875 Z M 20.386719 19.046875 " fill-opacity="1" fill-rule="nonzero"/></g></svg>