<svg xmlns="http://www.w3.org/2000/svg" xmlns:xlink="http://www.w3.org/1999/xlink" width="80" zoomAndPan="magnify" viewBox="0 0 60 60" height="80" preserveAspectRatio="xMidYMid meet" version="1.0"><defs><clipPath id="d5aa4b4d9e"><path d="M 0.96875 7.65625 L 59.023438 7.65625 L 59.023438 49.757812 L 0.96875 49.757812 Z M 0.96875 7.65625 " clip-rule="nonzero"/></clipPath></defs><g clip-path="url(#d5aa4b4d9e)"><path fill="#000000" d="M 56.0625 30.679688 C 55 32.335938 50.65625 34.03125 49.984375 34.289062 C 49.9375 34.304688 49.898438 34.328125 49.859375 34.34375 C 49.734375 34.40625 49.320312 34.515625 48.71875 33.875 C 48.1875 33.304688 47.273438 31.875 46.804688 31.132812 C 46.65625 30.882812 46.765625 30.5625 47.03125 30.460938 L 55.132812 27.382812 C 55.304688 27.320312 55.5 27.367188 55.617188 27.5 C 56.0625 28 56.96875 29.28125 56.0625 30.679688 Z M 53.9375 42.84375 C 53.375 43 52.570312 43.109375 51.453125 43.046875 C 51.054688 43.023438 50.671875 42.867188 50.367188 42.617188 L 47.828125 40.507812 C 47.445312 40.195312 47.515625 39.59375 47.953125 39.367188 C 48.914062 38.890625 50.585938 38.265625 52.664062 38.429688 C 53.546875 38.5 54.3125 39.0625 54.632812 39.882812 C 54.773438 40.234375 54.898438 40.65625 54.984375 41.15625 C 55.117188 41.90625 54.664062 42.632812 53.9375 42.84375 Z M 46.359375 43.195312 L 13.632812 43.195312 C 13.304688 43.195312 13.132812 42.984375 13.359375 42.859375 L 14.835938 42.023438 C 16.507812 41.15625 18.445312 41.078125 19.210938 41.085938 C 20.070312 41.101562 20.929688 41.101562 21.789062 41.101562 L 38.203125 41.101562 C 39.0625 41.101562 39.921875 41.101562 40.78125 41.085938 C 41.546875 41.078125 43.492188 41.15625 45.164062 42.023438 L 46.640625 42.859375 C 46.859375 42.984375 46.6875 43.195312 46.359375 43.195312 Z M 13.1875 31.132812 C 12.726562 31.875 11.8125 33.304688 11.28125 33.875 C 10.671875 34.515625 10.265625 34.40625 10.140625 34.34375 C 10.09375 34.328125 10.054688 34.304688 10.007812 34.289062 C 9.335938 34.03125 5 32.335938 3.929688 30.679688 C 3.03125 29.28125 3.929688 28 4.375 27.5 C 4.5 27.367188 4.6875 27.320312 4.859375 27.382812 L 12.960938 30.460938 C 13.234375 30.5625 13.335938 30.882812 13.1875 31.132812 Z M 12.164062 40.507812 L 9.625 42.617188 C 9.320312 42.867188 8.9375 43.023438 8.546875 43.046875 C 7.421875 43.109375 6.617188 43 6.054688 42.84375 C 5.328125 42.632812 4.875 41.90625 5.007812 41.15625 C 5.09375 40.65625 5.226562 40.234375 5.359375 39.882812 C 5.6875 39.0625 6.453125 38.5 7.328125 38.429688 C 9.40625 38.265625 11.085938 38.890625 12.039062 39.367188 C 12.476562 39.59375 12.546875 40.195312 12.164062 40.507812 Z M 44.851562 35.851562 C 44.203125 36.421875 43.15625 37.046875 41.492188 37.320312 C 41.492188 37.320312 37.21875 38.085938 30 38.085938 C 22.773438 38.085938 18.5 37.320312 18.5 37.320312 C 16.84375 37.046875 15.789062 36.421875 15.140625 35.851562 C 14.507812 35.289062 14.375 34.351562 14.8125 33.632812 L 15.171875 33.0625 C 15.828125 31.984375 16.921875 31.25 18.164062 31.046875 C 20.835938 30.617188 25.046875 30.585938 27.65625 30.617188 C 29.203125 30.632812 30.742188 30.632812 32.28125 30.617188 C 34.890625 30.585938 39.140625 30.609375 41.828125 31.046875 C 43.070312 31.25 44.164062 31.984375 44.828125 33.0625 L 45.179688 33.632812 C 45.625 34.351562 45.484375 35.289062 44.851562 35.851562 Z M 10.585938 18.484375 C 10.859375 17.617188 11.773438 15.367188 14.609375 11.398438 C 15.195312 10.578125 16.109375 10.070312 17.117188 10 C 19.710938 9.828125 25.101562 9.507812 30 9.507812 C 34.890625 9.507812 40.28125 9.828125 42.875 10 C 43.882812 10.070312 44.804688 10.578125 45.390625 11.398438 C 48.21875 15.367188 49.132812 17.617188 49.414062 18.484375 C 49.476562 18.695312 49.320312 18.90625 49.101562 18.90625 L 30 18.609375 L 10.890625 18.90625 C 10.671875 18.90625 10.515625 18.695312 10.585938 18.484375 Z M 59.023438 43.78125 L 58.789062 30.007812 C 58.640625 25.960938 53.023438 20.773438 53.023438 20.773438 C 53.59375 20.46875 54.234375 20.289062 54.882812 20.257812 C 55.796875 20.21875 57.101562 19.898438 56.789062 18.359375 C 56.445312 16.664062 53.851562 16.257812 52.46875 16.164062 C 52.039062 16.132812 51.695312 16.523438 51.78125 16.953125 L 52.265625 19.289062 C 52.265625 19.289062 52.265625 19.289062 52.265625 19.296875 C 52.304688 19.46875 52.0625 19.554688 51.96875 19.40625 L 51.539062 18.679688 C 48.148438 12.859375 46.664062 10.796875 45.421875 9.734375 C 44.859375 9.25 44.179688 8.914062 43.453125 8.75 C 38.078125 7.554688 30 7.664062 30 7.664062 C 30 7.664062 21.914062 7.554688 16.539062 8.75 C 15.8125 8.914062 15.132812 9.25 14.570312 9.734375 C 13.328125 10.796875 11.84375 12.859375 8.453125 18.679688 L 8.023438 19.40625 C 7.929688 19.554688 7.695312 19.46875 7.726562 19.296875 C 7.726562 19.289062 7.726562 19.289062 7.726562 19.289062 L 8.210938 16.953125 C 8.296875 16.523438 7.953125 16.132812 7.523438 16.164062 C 6.148438 16.257812 3.546875 16.664062 3.203125 18.359375 C 2.890625 19.898438 4.195312 20.21875 5.117188 20.257812 C 5.765625 20.289062 6.398438 20.46875 6.96875 20.773438 C 6.96875 20.773438 1.351562 25.960938 1.203125 30.007812 L 0.96875 43.78125 C 0.960938 44.359375 1.1875 44.90625 1.585938 45.296875 L 1.585938 46.898438 C 1.585938 48.820312 3.15625 50.390625 5.070312 50.390625 L 11.46875 50.390625 C 12.773438 50.390625 13.835938 49.328125 13.835938 48.023438 L 13.835938 47.023438 L 46.15625 47.023438 L 46.15625 48.023438 C 46.15625 49.328125 47.226562 50.390625 48.523438 50.390625 L 54.921875 50.390625 C 56.835938 50.390625 58.40625 48.820312 58.40625 46.898438 L 58.40625 45.296875 C 58.8125 44.90625 59.039062 44.359375 59.023438 43.78125 " fill-opacity="1" fill-rule="nonzero"/></g></svg>