<svg xmlns="http://www.w3.org/2000/svg" xmlns:xlink="http://www.w3.org/1999/xlink" width="40" zoomAndPan="magnify" viewBox="0 0 30 30.000001" height="40" preserveAspectRatio="xMidYMid meet" version="1.0"><defs><clipPath id="b0828962bd"><path d="M 0.484375 0 L 29.515625 0 L 29.515625 29.03125 L 0.484375 29.03125 Z M 0.484375 0 " clip-rule="nonzero"/></clipPath></defs><g clip-path="url(#b0828962bd)"><path fill="#ffffff" d="M 23.46875 0 L 6.53125 0 C 3.191406 0 0.484375 2.707031 0.484375 6.046875 L 0.484375 22.984375 C 0.484375 26.324219 3.191406 29.03125 6.53125 29.03125 L 23.46875 29.03125 C 26.808594 29.03125 29.515625 26.324219 29.515625 22.984375 L 29.515625 6.046875 C 29.515625 2.707031 26.808594 0 23.46875 0 Z M 10.160156 22.984375 L 6.53125 22.984375 L 6.53125 9.675781 L 10.160156 9.675781 Z M 8.347656 8.144531 C 7.179688 8.144531 6.230469 7.1875 6.230469 6.007812 C 6.230469 4.832031 7.179688 3.875 8.347656 3.875 C 9.515625 3.875 10.464844 4.832031 10.464844 6.007812 C 10.464844 7.1875 9.515625 8.144531 8.347656 8.144531 Z M 24.675781 22.984375 L 21.046875 22.984375 L 21.046875 16.203125 C 21.046875 12.128906 16.210938 12.4375 16.210938 16.203125 L 16.210938 22.984375 L 12.582031 22.984375 L 12.582031 9.675781 L 16.210938 9.675781 L 16.210938 11.8125 C 17.898438 8.683594 24.675781 8.453125 24.675781 14.808594 Z M 24.675781 22.984375 " fill-opacity="1" fill-rule="nonzero"/></g></svg>