<svg xmlns="http://www.w3.org/2000/svg" xmlns:xlink="http://www.w3.org/1999/xlink" width="40" zoomAndPan="magnify" viewBox="0 0 30 30.000001" height="40" preserveAspectRatio="xMidYMid meet" version="1.0"><defs><clipPath id="afe24ba2f2"><path d="M 0.484375 0 L 29.515625 0 L 29.515625 29.03125 L 0.484375 29.03125 Z M 0.484375 0 " clip-rule="nonzero"/></clipPath></defs><path fill="#ffffff" d="M 20.203125 14.515625 C 20.203125 14.859375 20.171875 15.195312 20.105469 15.53125 C 20.039062 15.867188 19.9375 16.191406 19.808594 16.507812 C 19.675781 16.824219 19.515625 17.125 19.328125 17.40625 C 19.136719 17.691406 18.921875 17.953125 18.679688 18.195312 C 18.4375 18.4375 18.175781 18.652344 17.890625 18.84375 C 17.605469 19.03125 17.308594 19.191406 16.992188 19.324219 C 16.675781 19.453125 16.351562 19.554688 16.015625 19.621094 C 15.679688 19.6875 15.339844 19.71875 15 19.71875 C 14.660156 19.71875 14.320312 19.6875 13.984375 19.621094 C 13.648438 19.554688 13.324219 19.453125 13.007812 19.324219 C 12.691406 19.191406 12.394531 19.03125 12.109375 18.84375 C 11.824219 18.652344 11.5625 18.4375 11.320312 18.195312 C 11.078125 17.953125 10.863281 17.691406 10.671875 17.40625 C 10.484375 17.125 10.324219 16.824219 10.191406 16.507812 C 10.0625 16.191406 9.960938 15.867188 9.894531 15.53125 C 9.828125 15.195312 9.796875 14.859375 9.796875 14.515625 C 9.796875 14.175781 9.828125 13.835938 9.894531 13.5 C 9.960938 13.164062 10.0625 12.839844 10.191406 12.523438 C 10.324219 12.210938 10.484375 11.910156 10.671875 11.625 C 10.863281 11.339844 11.078125 11.078125 11.320312 10.835938 C 11.5625 10.59375 11.824219 10.378906 12.109375 10.1875 C 12.394531 10 12.691406 9.839844 13.007812 9.707031 C 13.324219 9.578125 13.648438 9.480469 13.984375 9.414062 C 14.320312 9.34375 14.660156 9.3125 15 9.3125 C 15.339844 9.3125 15.679688 9.34375 16.015625 9.414062 C 16.351562 9.480469 16.675781 9.578125 16.992188 9.707031 C 17.308594 9.839844 17.605469 10 17.890625 10.1875 C 18.175781 10.378906 18.4375 10.59375 18.679688 10.835938 C 18.921875 11.078125 19.136719 11.339844 19.328125 11.625 C 19.515625 11.910156 19.675781 12.210938 19.808594 12.523438 C 19.9375 12.839844 20.039062 13.164062 20.105469 13.5 C 20.171875 13.835938 20.203125 14.175781 20.203125 14.515625 Z M 20.203125 14.515625 " fill-opacity="1" fill-rule="nonzero"/><g clip-path="url(#afe24ba2f2)"><path fill="#ffffff" d="M 24.925781 0 L 5.074219 0 C 2.542969 0 0.484375 2.058594 0.484375 4.589844 L 0.484375 24.4375 C 0.484375 26.96875 2.542969 29.027344 5.074219 29.027344 L 24.921875 29.027344 C 27.449219 29.027344 29.511719 26.96875 29.511719 24.4375 L 29.511719 4.589844 C 29.515625 2.058594 27.457031 0 24.925781 0 Z M 15 22.457031 C 10.617188 22.457031 7.058594 18.898438 7.058594 14.515625 C 7.058594 10.132812 10.617188 6.574219 15 6.574219 C 19.382812 6.574219 22.941406 10.132812 22.941406 14.515625 C 22.941406 18.898438 19.382812 22.457031 15 22.457031 Z M 23.214844 7.667969 C 22.460938 7.667969 21.847656 7.054688 21.847656 6.300781 C 21.847656 5.542969 22.460938 4.929688 23.214844 4.929688 C 23.972656 4.929688 24.585938 5.542969 24.585938 6.300781 C 24.585938 7.054688 23.972656 7.667969 23.214844 7.667969 Z M 23.214844 7.667969 " fill-opacity="1" fill-rule="nonzero"/></g></svg>