<svg xmlns="http://www.w3.org/2000/svg" xmlns:xlink="http://www.w3.org/1999/xlink" width="40" zoomAndPan="magnify" viewBox="0 0 30 30.000001" height="40" preserveAspectRatio="xMidYMid meet" version="1.0"><defs><clipPath id="bfa8321048"><path d="M 0.484375 4.15625 L 29 4.15625 L 29 16 L 0.484375 16 Z M 0.484375 4.15625 " clip-rule="nonzero"/></clipPath><clipPath id="b06c86e784"><path d="M 0.484375 7 L 29.515625 7 L 29.515625 25 L 0.484375 25 Z M 0.484375 7 " clip-rule="nonzero"/></clipPath></defs><g clip-path="url(#bfa8321048)"><path fill="#ffffff" d="M 13.101562 14.855469 C 13.375 15.0625 13.671875 15.222656 13.996094 15.332031 C 14.320312 15.445312 14.65625 15.5 14.996094 15.5 C 15.339844 15.5 15.675781 15.445312 16 15.332031 C 16.324219 15.222656 16.621094 15.0625 16.894531 14.855469 L 28.933594 5.476562 C 28.644531 5.0625 28.273438 4.738281 27.824219 4.503906 C 27.378906 4.273438 26.902344 4.15625 26.394531 4.15625 L 3.605469 4.15625 C 3.066406 4.15625 2.566406 4.289062 2.097656 4.550781 C 1.628906 4.8125 1.253906 5.171875 0.972656 5.625 Z M 13.101562 14.855469 " fill-opacity="1" fill-rule="nonzero"/></g><g clip-path="url(#b06c86e784)"><path fill="#ffffff" d="M 18.164062 16.496094 C 17.710938 16.84375 17.214844 17.109375 16.671875 17.292969 C 16.132812 17.476562 15.574219 17.570312 15.003906 17.570312 C 14.433594 17.570312 13.875 17.476562 13.335938 17.292969 C 12.792969 17.109375 12.296875 16.84375 11.84375 16.496094 L 0.496094 7.867188 L 0.496094 21.765625 C 0.496094 22.179688 0.574219 22.574219 0.734375 22.957031 C 0.890625 23.335938 1.113281 23.671875 1.40625 23.964844 C 1.699219 24.257812 2.035156 24.480469 2.414062 24.636719 C 2.796875 24.796875 3.191406 24.875 3.605469 24.875 L 26.394531 24.875 C 26.808594 24.875 27.203125 24.796875 27.585938 24.636719 C 27.964844 24.480469 28.300781 24.257812 28.59375 23.964844 C 28.886719 23.671875 29.109375 23.335938 29.265625 22.957031 C 29.425781 22.574219 29.503906 22.179688 29.503906 21.765625 L 29.503906 7.660156 Z M 18.164062 16.496094 " fill-opacity="1" fill-rule="nonzero"/></g></svg>