<svg xmlns="http://www.w3.org/2000/svg" xmlns:xlink="http://www.w3.org/1999/xlink" width="882" zoomAndPan="magnify" viewBox="0 0 661.5 201.000001" height="268" preserveAspectRatio="xMidYMid meet" version="1.0"><defs><g/><clipPath id="5a5adeb000"><path d="M 45 62 L 158.613281 62 L 158.613281 157.972656 L 45 157.972656 Z M 45 62 " clip-rule="nonzero"/></clipPath><clipPath id="d858458b9b"><path d="M 43.683594 43.042969 L 145 43.042969 L 145 114 L 43.683594 114 Z M 43.683594 43.042969 " clip-rule="nonzero"/></clipPath></defs><g fill="#000000" fill-opacity="1"><g transform="translate(171.818315, 137.512536)"><g><path d="M 22.421875 -66.3125 L 31.25 -13.578125 L 58.8125 -66.3125 L 72.953125 -66.3125 L 36.953125 0 L 20.8125 0 L 8.171875 -66.3125 Z M 22.421875 -66.3125 "/></g></g></g><g fill="#000000" fill-opacity="1"><g transform="translate(239.354224, 137.512536)"><g><path d="M 18.8125 -58.90625 C 16.71875 -58.90625 15.035156 -59.503906 13.765625 -60.703125 C 12.503906 -61.910156 11.875 -63.429688 11.875 -65.265625 C 11.875 -67.796875 12.835938 -69.960938 14.765625 -71.765625 C 16.703125 -73.578125 18.96875 -74.484375 21.5625 -74.484375 C 23.59375 -74.484375 25.238281 -73.878906 26.5 -72.671875 C 27.769531 -71.472656 28.40625 -69.953125 28.40625 -68.109375 C 28.40625 -65.578125 27.453125 -63.410156 25.546875 -61.609375 C 23.648438 -59.804688 21.40625 -58.90625 18.8125 -58.90625 Z M 24.3125 -52.625 L 15.015625 0 L 1.609375 0 L 10.921875 -52.625 Z M 24.3125 -52.625 "/></g></g></g><g fill="#000000" fill-opacity="1"><g transform="translate(265.760671, 137.512536)"><g><path d="M 2.9375 -26.5 C 3.894531 -31.820312 5.78125 -36.539062 8.59375 -40.65625 C 11.414062 -44.769531 14.867188 -47.9375 18.953125 -50.15625 C 23.035156 -52.375 27.328125 -53.484375 31.828125 -53.484375 C 35.242188 -53.484375 38.375 -52.738281 41.21875 -51.25 C 44.070312 -49.757812 46.195312 -47.78125 47.59375 -45.3125 L 52.0625 -70.296875 L 65.453125 -70.296875 L 53.015625 0 L 39.609375 0 L 41.046875 -7.796875 C 38.953125 -5.191406 36.273438 -3.097656 33.015625 -1.515625 C 29.753906 0.0664062 26.160156 0.859375 22.234375 0.859375 C 18.367188 0.859375 14.929688 -0.0078125 11.921875 -1.75 C 8.910156 -3.5 6.566406 -5.972656 4.890625 -9.171875 C 3.210938 -12.367188 2.375 -16.085938 2.375 -20.328125 C 2.375 -22.296875 2.5625 -24.351562 2.9375 -26.5 Z M 44.265625 -26.3125 C 44.523438 -27.957031 44.65625 -29.160156 44.65625 -29.921875 C 44.65625 -33.660156 43.5625 -36.570312 41.375 -38.65625 C 39.1875 -40.75 36.445312 -41.796875 33.15625 -41.796875 C 30.6875 -41.796875 28.296875 -41.191406 25.984375 -39.984375 C 23.671875 -38.785156 21.660156 -37.03125 19.953125 -34.71875 C 18.242188 -32.40625 17.101562 -29.664062 16.53125 -26.5 C 16.34375 -25.300781 16.25 -24.160156 16.25 -23.078125 C 16.25 -19.285156 17.320312 -16.296875 19.46875 -14.109375 C 21.625 -11.921875 24.347656 -10.828125 27.640625 -10.828125 C 30.109375 -10.828125 32.515625 -11.441406 34.859375 -12.671875 C 37.203125 -13.910156 39.210938 -15.703125 40.890625 -18.046875 C 42.578125 -20.390625 43.703125 -23.144531 44.265625 -26.3125 Z M 44.265625 -26.3125 "/></g></g></g><g fill="#000000" fill-opacity="1"><g transform="translate(330.162001, 137.512536)"><g><path d="M 34.109375 -53.484375 C 40.816406 -53.484375 46.132812 -51.628906 50.0625 -47.921875 C 53.988281 -44.222656 55.953125 -39.238281 55.953125 -32.96875 C 55.953125 -30.9375 55.796875 -29.128906 55.484375 -27.546875 C 55.097656 -25.648438 54.6875 -24.003906 54.25 -22.609375 L 15.765625 -22.609375 C 15.703125 -22.160156 15.671875 -21.523438 15.671875 -20.703125 C 15.671875 -17.410156 16.632812 -14.832031 18.5625 -12.96875 C 20.5 -11.101562 23.050781 -10.171875 26.21875 -10.171875 C 28.875 -10.171875 31.164062 -10.753906 33.09375 -11.921875 C 35.03125 -13.097656 36.601562 -14.632812 37.8125 -16.53125 L 52.15625 -16.53125 C 49.8125 -11.46875 46.1875 -7.300781 41.28125 -4.03125 C 36.375 -0.769531 30.816406 0.859375 24.609375 0.859375 C 17.890625 0.859375 12.503906 -1.039062 8.453125 -4.84375 C 4.398438 -8.644531 2.375 -13.804688 2.375 -20.328125 C 2.375 -22.234375 2.5625 -24.226562 2.9375 -26.3125 C 3.894531 -31.757812 5.84375 -36.539062 8.78125 -40.65625 C 11.726562 -44.769531 15.382812 -47.9375 19.75 -50.15625 C 24.125 -52.375 28.910156 -53.484375 34.109375 -53.484375 Z M 42.28125 -30.6875 C 42.40625 -31.695312 42.46875 -32.425781 42.46875 -32.875 C 42.46875 -35.914062 41.484375 -38.289062 39.515625 -40 C 37.554688 -41.707031 34.992188 -42.5625 31.828125 -42.5625 C 28.472656 -42.5625 25.460938 -41.5 22.796875 -39.375 C 20.140625 -37.25 18.269531 -34.351562 17.1875 -30.6875 Z M 42.28125 -30.6875 "/></g></g></g><g fill="#000000" fill-opacity="1"><g transform="translate(388.76912, 137.512536)"><g><path d="M 54.34375 -66.3125 L 52.4375 -55.859375 L 24.890625 -55.859375 L 21.84375 -38.46875 L 42.9375 -38.46875 L 41.140625 -28.21875 L 19.953125 -28.21875 L 15.015625 0 L 1.609375 0 L 13.390625 -66.3125 Z M 54.34375 -66.3125 "/></g></g></g><g fill="#000000" fill-opacity="1"><g transform="translate(439.112329, 137.512536)"><g><path d="M 2.9375 -26.5 C 3.894531 -31.820312 5.78125 -36.539062 8.59375 -40.65625 C 11.414062 -44.769531 14.851562 -47.9375 18.90625 -50.15625 C 22.957031 -52.375 27.234375 -53.484375 31.734375 -53.484375 C 35.660156 -53.484375 38.96875 -52.691406 41.65625 -51.109375 C 44.34375 -49.523438 46.320312 -47.53125 47.59375 -45.125 L 48.921875 -52.625 L 62.3125 -52.625 L 53.015625 0 L 39.609375 0 L 41.046875 -7.6875 C 38.953125 -5.21875 36.242188 -3.175781 32.921875 -1.5625 C 29.597656 0.0507812 25.972656 0.859375 22.046875 0.859375 C 18.179688 0.859375 14.757812 -0.0078125 11.78125 -1.75 C 8.800781 -3.5 6.488281 -5.972656 4.84375 -9.171875 C 3.195312 -12.367188 2.375 -16.085938 2.375 -20.328125 C 2.375 -22.296875 2.5625 -24.351562 2.9375 -26.5 Z M 44.265625 -26.3125 C 44.523438 -27.957031 44.65625 -29.160156 44.65625 -29.921875 C 44.65625 -33.660156 43.5625 -36.570312 41.375 -38.65625 C 39.1875 -40.75 36.445312 -41.796875 33.15625 -41.796875 C 30.6875 -41.796875 28.296875 -41.191406 25.984375 -39.984375 C 23.671875 -38.785156 21.660156 -37.03125 19.953125 -34.71875 C 18.242188 -32.40625 17.101562 -29.664062 16.53125 -26.5 C 16.34375 -25.300781 16.25 -24.160156 16.25 -23.078125 C 16.25 -19.285156 17.320312 -16.296875 19.46875 -14.109375 C 21.625 -11.921875 24.347656 -10.828125 27.640625 -10.828125 C 30.109375 -10.828125 32.515625 -11.441406 34.859375 -12.671875 C 37.203125 -13.910156 39.210938 -15.703125 40.890625 -18.046875 C 42.578125 -20.390625 43.703125 -23.144531 44.265625 -26.3125 Z M 44.265625 -26.3125 "/></g></g></g><g fill="#000000" fill-opacity="1"><g transform="translate(503.513645, 137.512536)"><g><path d="M 2.9375 -26.3125 C 3.894531 -31.757812 5.828125 -36.523438 8.734375 -40.609375 C 11.648438 -44.691406 15.273438 -47.859375 19.609375 -50.109375 C 23.953125 -52.359375 28.65625 -53.484375 33.71875 -53.484375 C 40.25 -53.484375 45.363281 -51.867188 49.0625 -48.640625 C 52.769531 -45.410156 54.847656 -40.816406 55.296875 -34.859375 L 40.9375 -34.859375 C 40.5625 -37.140625 39.582031 -38.929688 38 -40.234375 C 36.414062 -41.535156 34.296875 -42.1875 31.640625 -42.1875 C 27.835938 -42.1875 24.585938 -40.804688 21.890625 -38.046875 C 19.203125 -35.296875 17.414062 -31.382812 16.53125 -26.3125 C 16.21875 -24.539062 16.0625 -23.019531 16.0625 -21.75 C 16.0625 -18.144531 16.945312 -15.375 18.71875 -13.4375 C 20.488281 -11.507812 22.957031 -10.546875 26.125 -10.546875 C 31.445312 -10.546875 35.375 -12.953125 37.90625 -17.765625 L 52.25 -17.765625 C 49.78125 -12.066406 46.085938 -7.535156 41.171875 -4.171875 C 36.265625 -0.816406 30.613281 0.859375 24.21875 0.859375 C 17.570312 0.859375 12.269531 -1.023438 8.3125 -4.796875 C 4.351562 -8.566406 2.375 -13.679688 2.375 -20.140625 C 2.375 -22.097656 2.5625 -24.15625 2.9375 -26.3125 Z M 2.9375 -26.3125 "/></g></g></g><g fill="#000000" fill-opacity="1"><g transform="translate(560.695966, 137.512536)"><g><path d="M 34.109375 -53.484375 C 40.816406 -53.484375 46.132812 -51.628906 50.0625 -47.921875 C 53.988281 -44.222656 55.953125 -39.238281 55.953125 -32.96875 C 55.953125 -30.9375 55.796875 -29.128906 55.484375 -27.546875 C 55.097656 -25.648438 54.6875 -24.003906 54.25 -22.609375 L 15.765625 -22.609375 C 15.703125 -22.160156 15.671875 -21.523438 15.671875 -20.703125 C 15.671875 -17.410156 16.632812 -14.832031 18.5625 -12.96875 C 20.5 -11.101562 23.050781 -10.171875 26.21875 -10.171875 C 28.875 -10.171875 31.164062 -10.753906 33.09375 -11.921875 C 35.03125 -13.097656 36.601562 -14.632812 37.8125 -16.53125 L 52.15625 -16.53125 C 49.8125 -11.46875 46.1875 -7.300781 41.28125 -4.03125 C 36.375 -0.769531 30.816406 0.859375 24.609375 0.859375 C 17.890625 0.859375 12.503906 -1.039062 8.453125 -4.84375 C 4.398438 -8.644531 2.375 -13.804688 2.375 -20.328125 C 2.375 -22.234375 2.5625 -24.226562 2.9375 -26.3125 C 3.894531 -31.757812 5.84375 -36.539062 8.78125 -40.65625 C 11.726562 -44.769531 15.382812 -47.9375 19.75 -50.15625 C 24.125 -52.375 28.910156 -53.484375 34.109375 -53.484375 Z M 42.28125 -30.6875 C 42.40625 -31.695312 42.46875 -32.425781 42.46875 -32.875 C 42.46875 -35.914062 41.484375 -38.289062 39.515625 -40 C 37.554688 -41.707031 34.992188 -42.5625 31.828125 -42.5625 C 28.472656 -42.5625 25.460938 -41.5 22.796875 -39.375 C 20.140625 -37.25 18.269531 -34.351562 17.1875 -30.6875 Z M 42.28125 -30.6875 "/></g></g></g><g clip-path="url(#5a5adeb000)"><path fill="#007fff" d="M 144.59375 62.894531 L 133.53125 81.644531 L 118.117188 87.1875 L 112.167969 97.464844 L 127.3125 92.191406 L 120.824219 103.144531 L 105.679688 108.6875 L 82.976562 148.152344 L 60.25 108.28125 L 45.199219 113.65625 C 51.144531 139.054688 73.9375 157.96875 101.148438 157.96875 C 132.886719 157.96875 158.613281 132.242188 158.613281 100.503906 C 158.613281 86.121094 153.328125 72.972656 144.59375 62.890625 Z M 144.59375 62.894531 " fill-opacity="1" fill-rule="nonzero"/></g><path fill="#ffffff" d="M 45.105469 113.691406 L 69.480469 90.015625 L 82.75 113.289062 L 103.351562 77.726562 L 144.621094 62.851562 L 133.53125 81.644531 L 118.117188 87.191406 L 112.167969 97.464844 L 127.3125 92.191406 L 120.824219 103.144531 L 105.679688 108.6875 L 82.976562 148.152344 L 60.25 108.28125 Z M 45.105469 113.691406 " fill-opacity="1" fill-rule="nonzero"/><g clip-path="url(#d858458b9b)"><path fill="#3f51b5" d="M 69.480469 90.015625 L 82.75 113.289062 L 103.351562 77.726562 L 144.574219 62.867188 C 134.035156 50.722656 118.488281 43.042969 101.148438 43.042969 C 69.414062 43.042969 43.683594 68.769531 43.683594 100.507812 C 43.683594 105.015625 44.203125 109.402344 45.1875 113.609375 Z M 69.480469 90.015625 " fill-opacity="1" fill-rule="nonzero"/></g></svg>