<svg xmlns="http://www.w3.org/2000/svg" xmlns:xlink="http://www.w3.org/1999/xlink" width="190" zoomAndPan="magnify" viewBox="0 0 142.5 46.499999" height="62" preserveAspectRatio="xMidYMid meet" version="1.0"><defs><g/><clipPath id="1462d66199"><path d="M 2 13 L 29.300781 13 L 29.300781 36.105469 L 2 36.105469 Z M 2 13 " clip-rule="nonzero"/></clipPath><clipPath id="837179499b"><path d="M 1.847656 8.652344 L 26 8.652344 L 26 26 L 1.847656 26 Z M 1.847656 8.652344 " clip-rule="nonzero"/></clipPath></defs><g fill="#ffffff" fill-opacity="1"><g transform="translate(32.727963, 31.419049)"><g><path d="M 5.40625 -15.984375 L 7.53125 -3.265625 L 14.171875 -15.984375 L 17.578125 -15.984375 L 8.90625 0 L 5.015625 0 L 1.96875 -15.984375 Z M 5.40625 -15.984375 "/></g></g></g><g fill="#ffffff" fill-opacity="1"><g transform="translate(49.004991, 31.419049)"><g><path d="M 4.53125 -14.1875 C 4.03125 -14.1875 3.625 -14.332031 3.3125 -14.625 C 3.007812 -14.914062 2.859375 -15.28125 2.859375 -15.71875 C 2.859375 -16.332031 3.085938 -16.859375 3.546875 -17.296875 C 4.015625 -17.734375 4.566406 -17.953125 5.203125 -17.953125 C 5.679688 -17.953125 6.070312 -17.804688 6.375 -17.515625 C 6.6875 -17.222656 6.84375 -16.851562 6.84375 -16.40625 C 6.84375 -15.800781 6.613281 -15.28125 6.15625 -14.84375 C 5.695312 -14.40625 5.15625 -14.1875 4.53125 -14.1875 Z M 5.859375 -12.6875 L 3.609375 0 L 0.390625 0 L 2.625 -12.6875 Z M 5.859375 -12.6875 "/></g></g></g><g fill="#ffffff" fill-opacity="1"><g transform="translate(55.369286, 31.419049)"><g><path d="M 0.703125 -6.390625 C 0.929688 -7.671875 1.382812 -8.804688 2.0625 -9.796875 C 2.75 -10.785156 3.582031 -11.546875 4.5625 -12.078125 C 5.550781 -12.617188 6.585938 -12.890625 7.671875 -12.890625 C 8.492188 -12.890625 9.25 -12.707031 9.9375 -12.34375 C 10.625 -11.988281 11.132812 -11.515625 11.46875 -10.921875 L 12.546875 -16.9375 L 15.765625 -16.9375 L 12.765625 0 L 9.546875 0 L 9.890625 -1.875 C 9.390625 -1.25 8.742188 -0.742188 7.953125 -0.359375 C 7.171875 0.015625 6.304688 0.203125 5.359375 0.203125 C 4.421875 0.203125 3.585938 -0.00390625 2.859375 -0.421875 C 2.140625 -0.835938 1.578125 -1.429688 1.171875 -2.203125 C 0.773438 -2.972656 0.578125 -3.875 0.578125 -4.90625 C 0.578125 -5.375 0.617188 -5.867188 0.703125 -6.390625 Z M 10.671875 -6.34375 C 10.734375 -6.738281 10.765625 -7.023438 10.765625 -7.203125 C 10.765625 -8.109375 10.5 -8.8125 9.96875 -9.3125 C 9.4375 -9.820312 8.773438 -10.078125 7.984375 -10.078125 C 7.390625 -10.078125 6.8125 -9.929688 6.25 -9.640625 C 5.695312 -9.347656 5.210938 -8.921875 4.796875 -8.359375 C 4.390625 -7.804688 4.117188 -7.148438 3.984375 -6.390625 C 3.941406 -6.097656 3.921875 -5.820312 3.921875 -5.5625 C 3.921875 -4.644531 4.175781 -3.921875 4.6875 -3.390625 C 5.207031 -2.867188 5.863281 -2.609375 6.65625 -2.609375 C 7.25 -2.609375 7.828125 -2.753906 8.390625 -3.046875 C 8.960938 -3.347656 9.453125 -3.78125 9.859375 -4.34375 C 10.265625 -4.914062 10.535156 -5.582031 10.671875 -6.34375 Z M 10.671875 -6.34375 "/></g></g></g><g fill="#ffffff" fill-opacity="1"><g transform="translate(70.89084, 31.419049)"><g><path d="M 8.21875 -12.890625 C 9.832031 -12.890625 11.113281 -12.441406 12.0625 -11.546875 C 13.007812 -10.648438 13.484375 -9.445312 13.484375 -7.9375 C 13.484375 -7.445312 13.445312 -7.015625 13.375 -6.640625 C 13.28125 -6.179688 13.179688 -5.785156 13.078125 -5.453125 L 3.796875 -5.453125 C 3.785156 -5.335938 3.78125 -5.179688 3.78125 -4.984375 C 3.78125 -4.191406 4.007812 -3.570312 4.46875 -3.125 C 4.9375 -2.675781 5.550781 -2.453125 6.3125 -2.453125 C 6.957031 -2.453125 7.507812 -2.59375 7.96875 -2.875 C 8.4375 -3.15625 8.816406 -3.523438 9.109375 -3.984375 L 12.5625 -3.984375 C 12 -2.765625 11.125 -1.757812 9.9375 -0.96875 C 8.757812 -0.1875 7.421875 0.203125 5.921875 0.203125 C 4.304688 0.203125 3.007812 -0.253906 2.03125 -1.171875 C 1.0625 -2.085938 0.578125 -3.332031 0.578125 -4.90625 C 0.578125 -5.351562 0.617188 -5.832031 0.703125 -6.34375 C 0.929688 -7.65625 1.398438 -8.804688 2.109375 -9.796875 C 2.828125 -10.785156 3.710938 -11.546875 4.765625 -12.078125 C 5.816406 -12.617188 6.96875 -12.890625 8.21875 -12.890625 Z M 10.1875 -7.390625 C 10.21875 -7.640625 10.234375 -7.816406 10.234375 -7.921875 C 10.234375 -8.648438 9.992188 -9.21875 9.515625 -9.625 C 9.046875 -10.039062 8.429688 -10.25 7.671875 -10.25 C 6.859375 -10.25 6.128906 -9.992188 5.484375 -9.484375 C 4.847656 -8.972656 4.398438 -8.273438 4.140625 -7.390625 Z M 10.1875 -7.390625 "/></g></g></g><g fill="#ffffff" fill-opacity="1"><g transform="translate(85.015914, 31.419049)"><g><path d="M 13.09375 -15.984375 L 12.640625 -13.453125 L 6 -13.453125 L 5.265625 -9.265625 L 10.34375 -9.265625 L 9.90625 -6.796875 L 4.8125 -6.796875 L 3.609375 0 L 0.390625 0 L 3.234375 -15.984375 Z M 13.09375 -15.984375 "/></g></g></g><g fill="#ffffff" fill-opacity="1"><g transform="translate(97.149279, 31.419049)"><g><path d="M 0.703125 -6.390625 C 0.929688 -7.671875 1.382812 -8.804688 2.0625 -9.796875 C 2.75 -10.785156 3.578125 -11.546875 4.546875 -12.078125 C 5.523438 -12.617188 6.554688 -12.890625 7.640625 -12.890625 C 8.585938 -12.890625 9.382812 -12.695312 10.03125 -12.3125 C 10.6875 -11.9375 11.164062 -11.457031 11.46875 -10.875 L 11.78125 -12.6875 L 15.015625 -12.6875 L 12.765625 0 L 9.546875 0 L 9.890625 -1.859375 C 9.390625 -1.265625 8.738281 -0.769531 7.9375 -0.375 C 7.132812 0.0078125 6.257812 0.203125 5.3125 0.203125 C 4.382812 0.203125 3.5625 -0.00390625 2.84375 -0.421875 C 2.125 -0.835938 1.566406 -1.429688 1.171875 -2.203125 C 0.773438 -2.972656 0.578125 -3.875 0.578125 -4.90625 C 0.578125 -5.375 0.617188 -5.867188 0.703125 -6.390625 Z M 10.671875 -6.34375 C 10.734375 -6.738281 10.765625 -7.023438 10.765625 -7.203125 C 10.765625 -8.109375 10.5 -8.8125 9.96875 -9.3125 C 9.4375 -9.820312 8.773438 -10.078125 7.984375 -10.078125 C 7.390625 -10.078125 6.8125 -9.929688 6.25 -9.640625 C 5.695312 -9.347656 5.210938 -8.921875 4.796875 -8.359375 C 4.390625 -7.804688 4.117188 -7.148438 3.984375 -6.390625 C 3.941406 -6.097656 3.921875 -5.820312 3.921875 -5.5625 C 3.921875 -4.644531 4.175781 -3.921875 4.6875 -3.390625 C 5.207031 -2.867188 5.863281 -2.609375 6.65625 -2.609375 C 7.25 -2.609375 7.828125 -2.753906 8.390625 -3.046875 C 8.960938 -3.347656 9.453125 -3.78125 9.859375 -4.34375 C 10.265625 -4.914062 10.535156 -5.582031 10.671875 -6.34375 Z M 10.671875 -6.34375 "/></g></g></g><g fill="#ffffff" fill-opacity="1"><g transform="translate(112.67083, 31.419049)"><g><path d="M 0.703125 -6.34375 C 0.929688 -7.65625 1.394531 -8.800781 2.09375 -9.78125 C 2.800781 -10.769531 3.675781 -11.535156 4.71875 -12.078125 C 5.769531 -12.617188 6.90625 -12.890625 8.125 -12.890625 C 9.695312 -12.890625 10.925781 -12.5 11.8125 -11.71875 C 12.707031 -10.9375 13.210938 -9.832031 13.328125 -8.40625 L 9.859375 -8.40625 C 9.773438 -8.945312 9.539062 -9.375 9.15625 -9.6875 C 8.769531 -10 8.257812 -10.15625 7.625 -10.15625 C 6.707031 -10.15625 5.921875 -9.820312 5.265625 -9.15625 C 4.617188 -8.5 4.191406 -7.5625 3.984375 -6.34375 C 3.910156 -5.914062 3.875 -5.546875 3.875 -5.234375 C 3.875 -4.367188 4.085938 -3.703125 4.515625 -3.234375 C 4.941406 -2.773438 5.535156 -2.546875 6.296875 -2.546875 C 7.578125 -2.546875 8.523438 -3.125 9.140625 -4.28125 L 12.59375 -4.28125 C 12 -2.90625 11.109375 -1.8125 9.921875 -1 C 8.742188 -0.195312 7.382812 0.203125 5.84375 0.203125 C 4.238281 0.203125 2.957031 -0.25 2 -1.15625 C 1.050781 -2.0625 0.578125 -3.296875 0.578125 -4.859375 C 0.578125 -5.328125 0.617188 -5.820312 0.703125 -6.34375 Z M 0.703125 -6.34375 "/></g></g></g><g fill="#ffffff" fill-opacity="1"><g transform="translate(126.452509, 31.419049)"><g><path d="M 8.21875 -12.890625 C 9.832031 -12.890625 11.113281 -12.441406 12.0625 -11.546875 C 13.007812 -10.648438 13.484375 -9.445312 13.484375 -7.9375 C 13.484375 -7.445312 13.445312 -7.015625 13.375 -6.640625 C 13.28125 -6.179688 13.179688 -5.785156 13.078125 -5.453125 L 3.796875 -5.453125 C 3.785156 -5.335938 3.78125 -5.179688 3.78125 -4.984375 C 3.78125 -4.191406 4.007812 -3.570312 4.46875 -3.125 C 4.9375 -2.675781 5.550781 -2.453125 6.3125 -2.453125 C 6.957031 -2.453125 7.507812 -2.59375 7.96875 -2.875 C 8.4375 -3.15625 8.816406 -3.523438 9.109375 -3.984375 L 12.5625 -3.984375 C 12 -2.765625 11.125 -1.757812 9.9375 -0.96875 C 8.757812 -0.1875 7.421875 0.203125 5.921875 0.203125 C 4.304688 0.203125 3.007812 -0.253906 2.03125 -1.171875 C 1.0625 -2.085938 0.578125 -3.332031 0.578125 -4.90625 C 0.578125 -5.351562 0.617188 -5.832031 0.703125 -6.34375 C 0.929688 -7.65625 1.398438 -8.804688 2.109375 -9.796875 C 2.828125 -10.785156 3.710938 -11.546875 4.765625 -12.078125 C 5.816406 -12.617188 6.96875 -12.890625 8.21875 -12.890625 Z M 10.1875 -7.390625 C 10.21875 -7.640625 10.234375 -7.816406 10.234375 -7.921875 C 10.234375 -8.648438 9.992188 -9.21875 9.515625 -9.625 C 9.046875 -10.039062 8.429688 -10.25 7.671875 -10.25 C 6.859375 -10.25 6.128906 -9.992188 5.484375 -9.484375 C 4.847656 -8.972656 4.398438 -8.273438 4.140625 -7.390625 Z M 10.1875 -7.390625 "/></g></g></g><g clip-path="url(#1462d66199)"><path fill="#007fff" d="M 25.953125 13.394531 L 23.308594 17.871094 L 19.628906 19.195312 L 18.207031 21.652344 L 21.824219 20.390625 L 20.273438 23.007812 L 16.65625 24.332031 L 11.234375 33.761719 L 5.804688 24.234375 L 2.207031 25.519531 C 3.628906 31.585938 9.074219 36.105469 15.574219 36.105469 C 23.15625 36.105469 29.300781 29.960938 29.300781 22.378906 C 29.300781 18.941406 28.039062 15.800781 25.953125 13.390625 Z M 25.953125 13.394531 " fill-opacity="1" fill-rule="nonzero"/></g><path fill="#ffffff" d="M 2.183594 25.527344 L 8.007812 19.871094 L 11.179688 25.429688 L 16.101562 16.9375 L 25.957031 13.382812 L 23.308594 17.871094 L 19.628906 19.195312 L 18.207031 21.652344 L 21.824219 20.390625 L 20.273438 23.007812 L 16.65625 24.332031 L 11.234375 33.761719 L 5.804688 24.234375 Z M 2.183594 25.527344 " fill-opacity="1" fill-rule="nonzero"/><g clip-path="url(#837179499b)"><path fill="#3f51b5" d="M 8.007812 19.871094 L 11.179688 25.429688 L 16.101562 16.9375 L 25.945312 13.386719 C 23.429688 10.484375 19.714844 8.652344 15.574219 8.652344 C 7.992188 8.652344 1.847656 14.796875 1.847656 22.378906 C 1.847656 23.457031 1.96875 24.503906 2.203125 25.507812 Z M 8.007812 19.871094 " fill-opacity="1" fill-rule="nonzero"/></g></svg>