<?xml version="1.0" encoding="UTF-8"?>
<svg id="Capa_3" data-name="Capa 3" xmlns="http://www.w3.org/2000/svg" viewBox="0 0 934 934">
  <defs>
    <style>
      .cls-1 {
        fill: #3f51b5;
      }

      .cls-1, .cls-2, .cls-3 {
        stroke-width: 0px;
      }

      .cls-2 {
        fill: #fff;
      }

      .cls-3 {
        fill: #007fff;
      }
    </style>
  </defs>
  <path class="cls-3" d="m820.07,161.32l-89.9,152.39-125.27,45.05-48.35,83.51,123.07-42.85-52.74,89-123.07,45.05-184.49,320.73-184.71-324.03-122.32,43.68c48.32,206.41,233.56,360.13,454.71,360.13,257.92,0,467-209.08,467-467,0-116.9-42.95-223.76-113.93-305.68Z"/>
  <polygon class="cls-2" points="11.54 574.14 209.64 381.73 317.47 570.87 484.9 281.86 820.27 160.98 730.17 313.71 604.9 358.77 556.55 442.28 679.62 399.42 626.88 488.43 503.81 533.48 319.32 854.21 134.61 530.18 11.54 574.14"/>
  <path class="cls-1" d="m209.64,381.73l107.83,189.13,167.43-289.01,334.99-120.75C734.26,62.42,607.92,0,467,0,209.08,0,0,209.08,0,467c0,36.64,4.22,72.28,12.2,106.49l197.44-191.76Z"/>
</svg>