<svg xmlns="http://www.w3.org/2000/svg" xmlns:xlink="http://www.w3.org/1999/xlink" width="48" zoomAndPan="magnify" viewBox="0 0 36 36.000001" height="48" preserveAspectRatio="xMidYMid meet" version="1.0"><defs><clipPath id="59b8679353"><path d="M 3.113281 1.0625 L 33 1.0625 L 33 33.902344 L 3.113281 33.902344 Z M 3.113281 1.0625 " clip-rule="nonzero"/></clipPath></defs><g clip-path="url(#59b8679353)"><path fill="#007fff" d="M 19.566406 2.628906 C 11.347656 2.628906 4.683594 9.292969 4.683594 17.511719 C 4.683594 25.730469 11.347656 32.394531 19.566406 32.394531 C 23.886719 32.394531 27.78125 30.550781 30.5 27.605469 C 23.464844 26.8125 18 20.84375 18 13.597656 C 18 9.363281 19.863281 5.570312 22.8125 2.984375 C 21.769531 2.753906 20.679688 2.628906 19.566406 2.628906 Z M 3.117188 17.511719 C 3.117188 8.429688 10.480469 1.0625 19.566406 1.0625 C 21.382812 1.0625 23.128906 1.359375 24.765625 1.902344 C 25.046875 1.996094 25.25 2.242188 25.292969 2.535156 C 25.335938 2.828125 25.207031 3.121094 24.964844 3.289062 C 21.699219 5.554688 19.566406 9.324219 19.566406 13.597656 C 19.566406 20.515625 25.175781 26.128906 32.097656 26.128906 C 32.394531 26.128906 32.664062 26.292969 32.796875 26.558594 C 32.929688 26.824219 32.902344 27.144531 32.722656 27.378906 C 29.726562 31.375 24.945312 33.960938 19.566406 33.960938 C 10.480469 33.960938 3.117188 26.59375 3.117188 17.511719 Z M 3.117188 17.511719 " fill-opacity="1" fill-rule="evenodd"/></g></svg>