<svg xmlns="http://www.w3.org/2000/svg" xmlns:xlink="http://www.w3.org/1999/xlink" width="48" zoomAndPan="magnify" viewBox="0 0 36 36.000001" height="48" preserveAspectRatio="xMidYMid meet" version="1.0"><defs><clipPath id="3d9a9c19b7"><path d="M 0.488281 0 L 35.511719 0 L 35.511719 35.027344 L 0.488281 35.027344 Z M 0.488281 0 " clip-rule="nonzero"/></clipPath></defs><path fill="#007fff" d="M 18 4.777344 C 10.976562 4.777344 5.261719 10.488281 5.261719 17.511719 C 5.261719 24.539062 10.976562 30.25 18 30.25 C 25.023438 30.25 30.738281 24.539062 30.738281 17.511719 C 30.738281 10.488281 25.023438 4.777344 18 4.777344 Z M 18 6.367188 C 24.164062 6.367188 29.144531 11.347656 29.144531 17.511719 C 29.144531 23.679688 24.164062 28.660156 18 28.660156 C 11.835938 28.660156 6.855469 23.679688 6.855469 17.511719 C 6.855469 11.347656 11.835938 6.367188 18 6.367188 Z M 18 6.367188 " fill-opacity="1" fill-rule="nonzero"/><g clip-path="url(#3d9a9c19b7)"><path fill="#007fff" d="M 18 0 C 17.78125 0 17.59375 0.078125 17.4375 0.234375 C 17.28125 0.386719 17.203125 0.578125 17.203125 0.796875 L 17.203125 3.183594 C 17.203125 3.402344 17.28125 3.589844 17.4375 3.746094 C 17.59375 3.902344 17.78125 3.980469 18 3.980469 C 18.21875 3.980469 18.40625 3.902344 18.5625 3.746094 C 18.71875 3.589844 18.796875 3.402344 18.796875 3.183594 L 18.796875 0.796875 C 18.796875 0.578125 18.71875 0.386719 18.5625 0.234375 C 18.40625 0.078125 18.21875 0 18 0 Z M 6.179688 4.894531 C 5.957031 4.894531 5.769531 4.972656 5.617188 5.128906 C 5.460938 5.285156 5.382812 5.472656 5.382812 5.691406 C 5.382812 5.910156 5.460938 6.101562 5.617188 6.253906 L 7.304688 7.945312 C 7.460938 8.097656 7.648438 8.175781 7.867188 8.175781 C 8.085938 8.175781 8.273438 8.097656 8.429688 7.945312 C 8.585938 7.789062 8.664062 7.601562 8.664062 7.378906 C 8.664062 7.160156 8.585938 6.972656 8.429688 6.816406 L 6.742188 5.128906 C 6.585938 4.972656 6.398438 4.894531 6.179688 4.894531 Z M 29.820312 4.894531 C 29.601562 4.894531 29.414062 4.972656 29.257812 5.128906 L 27.570312 6.816406 C 27.414062 6.972656 27.335938 7.160156 27.335938 7.378906 C 27.335938 7.601562 27.414062 7.789062 27.570312 7.945312 C 27.726562 8.097656 27.914062 8.175781 28.132812 8.175781 C 28.351562 8.175781 28.539062 8.097656 28.695312 7.945312 L 30.382812 6.253906 C 30.539062 6.101562 30.617188 5.910156 30.617188 5.691406 C 30.617188 5.472656 30.539062 5.285156 30.382812 5.128906 C 30.230469 4.972656 30.042969 4.894531 29.820312 4.894531 Z M 1.28125 16.71875 C 1.0625 16.71875 0.875 16.796875 0.71875 16.949219 C 0.5625 17.105469 0.488281 17.292969 0.488281 17.511719 C 0.488281 17.734375 0.5625 17.921875 0.71875 18.078125 C 0.875 18.230469 1.0625 18.308594 1.28125 18.308594 L 3.671875 18.308594 C 3.890625 18.308594 4.078125 18.230469 4.234375 18.078125 C 4.390625 17.921875 4.464844 17.734375 4.46875 17.511719 C 4.464844 17.292969 4.390625 17.105469 4.234375 16.949219 C 4.078125 16.796875 3.890625 16.71875 3.671875 16.71875 Z M 32.328125 16.71875 C 32.109375 16.71875 31.921875 16.796875 31.765625 16.949219 C 31.609375 17.105469 31.53125 17.292969 31.53125 17.511719 C 31.53125 17.734375 31.609375 17.921875 31.765625 18.078125 C 31.921875 18.230469 32.109375 18.308594 32.328125 18.308594 L 34.71875 18.308594 C 34.9375 18.308594 35.125 18.230469 35.28125 18.078125 C 35.4375 17.921875 35.511719 17.734375 35.511719 17.511719 C 35.511719 17.292969 35.4375 17.105469 35.28125 16.949219 C 35.125 16.796875 34.9375 16.71875 34.71875 16.71875 Z M 7.867188 26.851562 C 7.648438 26.851562 7.460938 26.929688 7.304688 27.082031 L 5.617188 28.773438 C 5.460938 28.925781 5.382812 29.113281 5.382812 29.335938 C 5.382812 29.554688 5.460938 29.742188 5.617188 29.898438 C 5.769531 30.054688 5.957031 30.128906 6.179688 30.128906 C 6.398438 30.128906 6.585938 30.054688 6.742188 29.898438 L 8.429688 28.210938 C 8.585938 28.054688 8.664062 27.867188 8.664062 27.644531 C 8.664062 27.425781 8.585938 27.238281 8.429688 27.082031 C 8.273438 26.929688 8.085938 26.851562 7.867188 26.851562 Z M 28.132812 26.851562 C 27.914062 26.851562 27.726562 26.929688 27.570312 27.082031 C 27.414062 27.238281 27.335938 27.425781 27.335938 27.644531 C 27.335938 27.867188 27.414062 28.054688 27.570312 28.210938 L 29.257812 29.898438 C 29.414062 30.054688 29.601562 30.128906 29.820312 30.128906 C 30.042969 30.128906 30.230469 30.054688 30.382812 29.898438 C 30.539062 29.742188 30.617188 29.554688 30.617188 29.335938 C 30.617188 29.113281 30.539062 28.925781 30.382812 28.773438 L 28.695312 27.082031 C 28.539062 26.929688 28.351562 26.851562 28.132812 26.851562 Z M 18 31.046875 C 17.78125 31.046875 17.59375 31.125 17.4375 31.28125 C 17.28125 31.433594 17.203125 31.621094 17.203125 31.84375 L 17.203125 34.230469 C 17.203125 34.449219 17.28125 34.636719 17.4375 34.792969 C 17.59375 34.949219 17.78125 35.027344 18 35.027344 C 18.21875 35.027344 18.40625 34.949219 18.5625 34.792969 C 18.71875 34.636719 18.796875 34.449219 18.796875 34.230469 L 18.796875 31.84375 C 18.796875 31.621094 18.71875 31.433594 18.5625 31.28125 C 18.40625 31.125 18.21875 31.046875 18 31.046875 Z M 18 31.046875 " fill-opacity="1" fill-rule="nonzero"/></g><path fill="#007fff" d="M 18 7.960938 C 12.734375 7.960938 8.445312 12.246094 8.445312 17.511719 C 8.445312 17.734375 8.523438 17.921875 8.679688 18.078125 C 8.835938 18.230469 9.023438 18.308594 9.242188 18.308594 C 9.464844 18.308594 9.652344 18.230469 9.804688 18.078125 C 9.960938 17.921875 10.039062 17.734375 10.039062 17.511719 C 10.039062 13.109375 13.59375 9.554688 18 9.554688 C 18.21875 9.554688 18.40625 9.476562 18.5625 9.320312 C 18.71875 9.164062 18.796875 8.976562 18.796875 8.757812 C 18.796875 8.535156 18.71875 8.347656 18.5625 8.195312 C 18.40625 8.039062 18.21875 7.960938 18 7.960938 Z M 18 7.960938 " fill-opacity="1" fill-rule="nonzero"/></svg>