<svg xmlns="http://www.w3.org/2000/svg" version="1.1" xmlns:xlink="http://www.w3.org/1999/xlink" xmlns:svgjs="http://svgjs.dev/svgjs" width="1500" height="481" viewBox="0 0 1500 481"><g transform="matrix(1,0,0,1,-0.9090909090909918,-0.37135620423723026)"><svg viewBox="0 0 396 127" data-background-color="#000000" preserveAspectRatio="xMidYMid meet" height="481" width="1500" xmlns="http://www.w3.org/2000/svg" xmlns:xlink="http://www.w3.org/1999/xlink"><g id="tight-bounds" transform="matrix(1,0,0,1,0.2400000000000091,0.09805039072375621)"><svg viewBox="0 0 395.52 126.80389921855252" height="126.80389921855252" width="395.52"><g><svg viewBox="0 0 566.4918535119956 181.61755638366228" height="126.80389921855252" width="395.52"><g transform="matrix(1,0,0,1,170.9718535119956,25.10054505736578)"><svg viewBox="0 0 395.52 131.41646626893072" height="131.41646626893072" width="395.52"><g id="textblocktransform"><svg viewBox="0 0 395.52 131.41646626893072" height="131.41646626893072" width="395.52" id="textblock"><g><svg viewBox="0 0 395.52 131.41646626893072" height="131.41646626893072" width="395.52"><g transform="matrix(1,0,0,1,0,0)"><svg width="395.52" viewBox="2.5 -35.6 108.94 36.2" height="131.41646626893072" data-palette-color="url(#5c54b636-d07a-4851-8ab9-624b200975ca)"></svg></g></svg></g></svg></g></svg></g><g><svg viewBox="0 0 139.9475798210915 181.61755638366228" height="181.61755638366228" width="139.9475798210915"><g><svg xmlns="http://www.w3.org/2000/svg" data-name="Layer 1" viewBox="28.46 23.67 42.11121099474638 54.64999999999999" x="0" y="0" height="181.61755638366228" width="139.9475798210915" class="icon-icon-0" data-fill-palette-color="accent" id="icon-0"></svg></g></svg></g></svg></g><defs></defs><mask id="8b375c30-b0f0-40b9-94be-7758ed8578ce"><g id="SvgjsG7978"><svg viewBox="0 0 395.52 126.80389921855252" height="126.80389921855252" width="395.52"><g><svg viewBox="0 0 566.4918535119956 181.61755638366228" height="126.80389921855252" width="395.52"><g transform="matrix(1,0,0,1,170.9718535119956,25.10054505736578)"><svg viewBox="0 0 395.52 131.41646626893072" height="131.41646626893072" width="395.52"><g id="SvgjsG7977"><svg viewBox="0 0 395.52 131.41646626893072" height="131.41646626893072" width="395.52" id="SvgjsSvg7976"><g><svg viewBox="0 0 395.52 131.41646626893072" height="131.41646626893072" width="395.52"><g transform="matrix(1,0,0,1,0,0)"><svg width="395.52" viewBox="2.5 -35.6 108.94 36.2" height="131.41646626893072" data-palette-color="url(#5c54b636-d07a-4851-8ab9-624b200975ca)"><path d="M19 0.6L19 0.6Q15.1 0.6 12.05-0.83 9-2.25 6.88-4.73 4.75-7.2 3.63-10.5 2.5-13.8 2.5-17.55L2.5-17.55Q2.5-22.7 4.48-26.78 6.45-30.85 10.15-33.23 13.85-35.6 19-35.6L19-35.6Q22.85-35.6 25.93-34.2 29-32.8 31.15-30.3 33.3-27.8 34.43-24.55 35.55-21.3 35.55-17.55L35.55-17.55Q35.55-13.8 34.43-10.5 33.3-7.2 31.15-4.73 29-2.25 25.95-0.83 22.9 0.6 19 0.6ZM19-3.5L19-3.5Q22.85-3.5 25.45-5.35 28.05-7.2 29.38-10.38 30.7-13.55 30.7-17.55L30.7-17.55Q30.7-20.25 29.9-22.75 29.1-25.25 27.6-27.23 26.1-29.2 23.93-30.35 21.75-31.5 19-31.5L19-31.5Q15.35-31.5 12.73-29.65 10.1-27.8 8.72-24.65 7.35-21.5 7.35-17.55L7.35-17.55Q7.35-14.85 8.13-12.33 8.9-9.8 10.4-7.8 11.9-5.8 14.08-4.65 16.25-3.5 19-3.5ZM59.9 0L39.8 0 39.8-3.55 54.15-22.1 40.1-22.1 40.1-26 59.65-26 59.65-22.55 45.35-4 59.9-4 59.9 0ZM75.1 0.6L75.1 0.6Q71.85 0.6 69.2-1.05 66.55-2.7 64.97-5.73 63.4-8.75 63.4-12.85L63.4-12.85Q63.4-16.75 64.97-19.85 66.55-22.95 69.32-24.78 72.1-26.6 75.7-26.6L75.7-26.6Q77.95-26.6 79.77-25.83 81.6-25.05 82.95-23.9L82.95-23.9 82.95-26 87.05-26 87.05-6.3Q87.05-4.4 87.97-3.83 88.9-3.25 90-3.25L90-3.25 89.05 0.25Q84.25 0.25 83.25-3.65L83.25-3.65Q82.1-2.05 80.12-0.73 78.15 0.6 75.1 0.6ZM76.1-3.4L76.1-3.4Q78-3.4 79.7-4.33 81.4-5.25 82.55-6.65L82.55-6.65 82.55-20.6Q81.2-21.55 79.57-22.13 77.95-22.7 76.15-22.7L76.15-22.7Q73.75-22.7 71.92-21.48 70.1-20.25 69.05-18.07 68-15.9 68-13L68-13Q68-10.2 69.05-8.03 70.1-5.85 71.95-4.63 73.8-3.4 76.1-3.4ZM100.49 0L95.99 0 95.99-26 100.34-26 100.34-20.35Q100.99-22 102.09-23.43 103.19-24.85 104.84-25.73 106.49-26.6 108.69-26.6L108.69-26.6Q109.44-26.6 110.19-26.53 110.94-26.45 111.44-26.3L111.44-26.3 110.09-21.65Q109.14-22.05 107.84-22.05L107.84-22.05Q105.99-22.05 104.32-21 102.64-19.95 101.57-17.75 100.49-15.55 100.49-12.15L100.49-12.15 100.49 0Z" opacity="1" transform="matrix(1,0,0,1,0,0)" fill="white" class="wordmark-text-0" id="SvgjsPath7975"></path></svg></g></svg></g></svg></g></svg></g><g><svg viewBox="0 0 139.9475798210915 181.61755638366228" height="181.61755638366228" width="139.9475798210915"><g><svg xmlns="http://www.w3.org/2000/svg" data-name="Layer 1" viewBox="28.46 23.67 42.11121099474638 54.64999999999999" x="0" y="0" height="181.61755638366228" width="139.9475798210915" class="icon-icon-0" data-fill-palette-color="accent" id="SvgjsSvg7974"><path d="M34.14 66.4C33.93 66.66 33.66 67.01 33.32 67.46A19.54 19.54 0 0 0 29.52 78.32 19.54 19.54 0 0 0 38.88 71.63C39.22 71.17 39.48 70.82 39.67 70.55Z" fill="black"></path><path d="M55.73 62.43C55.73 61.72 55.59 59.95 55.54 59.43A71.5 71.5 0 0 0 62.63 51.32C72 38.83 70.48 23.67 70.48 23.67S55.48 26.48 46.15 38.97A71.5 71.5 0 0 0 40.38 47.97C39.85 48.07 38.13 48.41 37.46 48.63S28.46 60.68 28.46 60.68L35.76 59.68A25 25 0 0 0 35.13 63 2 2 0 0 0 35.93 64.8L40.67 68.35A2 2 0 0 0 42.62 68.61 25 25 0 0 0 45.62 67.12L46.62 74.44S55.7 63.27 55.73 62.43M55.07 44.24A3.87 3.87 0 1 1 60.48 43.46 3.87 3.87 0 0 1 55.07 44.24" fill="black"></path></svg></g></svg></g></svg></g><defs><mask></mask></defs></svg><rect width="395.52" height="126.80389921855252" fill="black" stroke="none" visibility="hidden"></rect></g></mask><linearGradient x1="0" x2="1" y1="0.548" y2="0.55" id="5c54b636-d07a-4851-8ab9-624b200975ca"><stop stop-color="#ff6cab" offset="0"></stop><stop stop-color="#7366ff" offset="1"></stop></linearGradient><rect width="395.52" height="126.80389921855252" fill="url(#5c54b636-d07a-4851-8ab9-624b200975ca)" mask="url(#8b375c30-b0f0-40b9-94be-7758ed8578ce)" data-fill-palette-color="primary"></rect><mask id="bc357224-36eb-4497-81bc-66228994d994"><g id="SvgjsG7997"><svg viewBox="0 0 395.52 126.80389921855252" height="126.80389921855252" width="395.52"><g><svg viewBox="0 0 566.4918535119956 181.61755638366228" height="126.80389921855252" width="395.52"><g transform="matrix(1,0,0,1,170.9718535119956,25.10054505736578)"><svg viewBox="0 0 395.52 131.41646626893072" height="131.41646626893072" width="395.52"><g id="SvgjsG7996"><svg viewBox="0 0 395.52 131.41646626893072" height="131.41646626893072" width="395.52" id="SvgjsSvg7995"><g><svg viewBox="0 0 395.52 131.41646626893072" height="131.41646626893072" width="395.52"><g transform="matrix(1,0,0,1,0,0)"><svg width="395.52" viewBox="2.5 -35.6 108.94 36.2" height="131.41646626893072" data-palette-color="url(#5c54b636-d07a-4851-8ab9-624b200975ca)"></svg></g></svg></g></svg></g></svg></g><g><svg viewBox="0 0 139.9475798210915 181.61755638366228" height="181.61755638366228" width="139.9475798210915"><g><svg xmlns="http://www.w3.org/2000/svg" data-name="Layer 1" viewBox="28.46 23.67 42.11121099474638 54.64999999999999" x="0" y="0" height="181.61755638366228" width="139.9475798210915" class="icon-icon-0" data-fill-palette-color="accent" id="SvgjsSvg7994"><path d="M34.14 66.4C33.93 66.66 33.66 67.01 33.32 67.46A19.54 19.54 0 0 0 29.52 78.32 19.54 19.54 0 0 0 38.88 71.63C39.22 71.17 39.48 70.82 39.67 70.55Z" fill="white"></path><path d="M55.73 62.43C55.73 61.72 55.59 59.95 55.54 59.43A71.5 71.5 0 0 0 62.63 51.32C72 38.83 70.48 23.67 70.48 23.67S55.48 26.48 46.15 38.97A71.5 71.5 0 0 0 40.38 47.97C39.85 48.07 38.13 48.41 37.46 48.63S28.46 60.68 28.46 60.68L35.76 59.68A25 25 0 0 0 35.13 63 2 2 0 0 0 35.93 64.8L40.67 68.35A2 2 0 0 0 42.62 68.61 25 25 0 0 0 45.62 67.12L46.62 74.44S55.7 63.27 55.73 62.43M55.07 44.24A3.87 3.87 0 1 1 60.48 43.46 3.87 3.87 0 0 1 55.07 44.24" fill="white"></path></svg></g></svg></g></svg></g><defs><mask></mask></defs><mask><g id="SvgjsG7993"><svg viewBox="0 0 395.52 126.80389921855252" height="126.80389921855252" width="395.52"><g><svg viewBox="0 0 566.4918535119956 181.61755638366228" height="126.80389921855252" width="395.52"><g transform="matrix(1,0,0,1,170.9718535119956,25.10054505736578)"><svg viewBox="0 0 395.52 131.41646626893072" height="131.41646626893072" width="395.52"><g id="SvgjsG7992"><svg viewBox="0 0 395.52 131.41646626893072" height="131.41646626893072" width="395.52" id="SvgjsSvg7991"><g><svg viewBox="0 0 395.52 131.41646626893072" height="131.41646626893072" width="395.52"><g transform="matrix(1,0,0,1,0,0)"><svg width="395.52" viewBox="2.5 -35.6 108.94 36.2" height="131.41646626893072" data-palette-color="url(#5c54b636-d07a-4851-8ab9-624b200975ca)"><path d="M19 0.6L19 0.6Q15.1 0.6 12.05-0.83 9-2.25 6.88-4.73 4.75-7.2 3.63-10.5 2.5-13.8 2.5-17.55L2.5-17.55Q2.5-22.7 4.48-26.78 6.45-30.85 10.15-33.23 13.85-35.6 19-35.6L19-35.6Q22.85-35.6 25.93-34.2 29-32.8 31.15-30.3 33.3-27.8 34.43-24.55 35.55-21.3 35.55-17.55L35.55-17.55Q35.55-13.8 34.43-10.5 33.3-7.2 31.15-4.73 29-2.25 25.95-0.83 22.9 0.6 19 0.6ZM19-3.5L19-3.5Q22.85-3.5 25.45-5.35 28.05-7.2 29.38-10.38 30.7-13.55 30.7-17.55L30.7-17.55Q30.7-20.25 29.9-22.75 29.1-25.25 27.6-27.23 26.1-29.2 23.93-30.35 21.75-31.5 19-31.5L19-31.5Q15.35-31.5 12.73-29.65 10.1-27.8 8.72-24.65 7.35-21.5 7.35-17.55L7.35-17.55Q7.35-14.85 8.13-12.33 8.9-9.8 10.4-7.8 11.9-5.8 14.08-4.65 16.25-3.5 19-3.5ZM59.9 0L39.8 0 39.8-3.55 54.15-22.1 40.1-22.1 40.1-26 59.65-26 59.65-22.55 45.35-4 59.9-4 59.9 0ZM75.1 0.6L75.1 0.6Q71.85 0.6 69.2-1.05 66.55-2.7 64.97-5.73 63.4-8.75 63.4-12.85L63.4-12.85Q63.4-16.75 64.97-19.85 66.55-22.95 69.32-24.78 72.1-26.6 75.7-26.6L75.7-26.6Q77.95-26.6 79.77-25.83 81.6-25.05 82.95-23.9L82.95-23.9 82.95-26 87.05-26 87.05-6.3Q87.05-4.4 87.97-3.83 88.9-3.25 90-3.25L90-3.25 89.05 0.25Q84.25 0.25 83.25-3.65L83.25-3.65Q82.1-2.05 80.12-0.73 78.15 0.6 75.1 0.6ZM76.1-3.4L76.1-3.4Q78-3.4 79.7-4.33 81.4-5.25 82.55-6.65L82.55-6.65 82.55-20.6Q81.2-21.55 79.57-22.13 77.95-22.7 76.15-22.7L76.15-22.7Q73.75-22.7 71.92-21.48 70.1-20.25 69.05-18.07 68-15.9 68-13L68-13Q68-10.2 69.05-8.03 70.1-5.85 71.95-4.63 73.8-3.4 76.1-3.4ZM100.49 0L95.99 0 95.99-26 100.34-26 100.34-20.35Q100.99-22 102.09-23.43 103.19-24.85 104.84-25.73 106.49-26.6 108.69-26.6L108.69-26.6Q109.44-26.6 110.19-26.53 110.94-26.45 111.44-26.3L111.44-26.3 110.09-21.65Q109.14-22.05 107.84-22.05L107.84-22.05Q105.99-22.05 104.32-21 102.64-19.95 101.57-17.75 100.49-15.55 100.49-12.15L100.49-12.15 100.49 0Z" opacity="1" transform="matrix(1,0,0,1,0,0)" fill="black" class="wordmark-text-0" id="SvgjsPath7990"></path></svg></g></svg></g></svg></g></svg></g><g><svg viewBox="0 0 139.9475798210915 181.61755638366228" height="181.61755638366228" width="139.9475798210915"><g><svg xmlns="http://www.w3.org/2000/svg" data-name="Layer 1" viewBox="28.46 23.67 42.11121099474638 54.64999999999999" x="0" y="0" height="181.61755638366228" width="139.9475798210915" class="icon-icon-0" data-fill-palette-color="accent" id="SvgjsSvg7989"><path d="M34.14 66.4C33.93 66.66 33.66 67.01 33.32 67.46A19.54 19.54 0 0 0 29.52 78.32 19.54 19.54 0 0 0 38.88 71.63C39.22 71.17 39.48 70.82 39.67 70.55Z" fill="black"></path><path d="M55.73 62.43C55.73 61.72 55.59 59.95 55.54 59.43A71.5 71.5 0 0 0 62.63 51.32C72 38.83 70.48 23.67 70.48 23.67S55.48 26.48 46.15 38.97A71.5 71.5 0 0 0 40.38 47.97C39.85 48.07 38.13 48.41 37.46 48.63S28.46 60.68 28.46 60.68L35.76 59.68A25 25 0 0 0 35.13 63 2 2 0 0 0 35.93 64.8L40.67 68.35A2 2 0 0 0 42.62 68.61 25 25 0 0 0 45.62 67.12L46.62 74.44S55.7 63.27 55.73 62.43M55.07 44.24A3.87 3.87 0 1 1 60.48 43.46 3.87 3.87 0 0 1 55.07 44.24" fill="black"></path></svg></g></svg></g></svg></g><defs><mask></mask></defs></svg><rect width="395.52" height="126.80389921855252" fill="black" stroke="none" visibility="hidden"></rect></g></mask></svg><rect width="395.52" height="126.80389921855252" fill="black" stroke="none" visibility="hidden"></rect></g></mask><linearGradient x1="0" x2="1" y1="0.548" y2="0.55" id="dc96188f-df83-4a61-9fc2-57e136403bf8"><stop stop-color="#ff6cab" offset="0"></stop><stop stop-color="#7366ff" offset="1"></stop></linearGradient><rect width="395.52" height="126.80389921855252" fill="url(#dc96188f-df83-4a61-9fc2-57e136403bf8)" mask="url(#bc357224-36eb-4497-81bc-66228994d994)" data-fill-palette-color="accent"></rect></svg><rect width="395.52" height="126.80389921855252" fill="none" stroke="none" visibility="hidden"></rect></g></svg></g></svg>