<svg xmlns="http://www.w3.org/2000/svg" width="24" height="24" fill="none">
    <path
        d="M8.006 2.802l.036.024 10.549 7.032.805.567c.227.183.494.437.648.808a2 2 0 0 1 0 1.532c-.154.371-.421.625-.648.808-.217.175-.5.364-.805.567L8.006 21.198l-.993.627c-.285.154-.676.331-1.132.303a2 2 0 0 1-1.476-.79c-.276-.365-.346-.788-.375-1.111S4 19.502 4 19.054V4.99v-.043l.029-1.174c.03-.323.1-.746.375-1.11a2 2 0 0 1 1.476-.79c.456-.027.847.149 1.132.304s.62.378.993.627z"
        fill="#fff" />
</svg>