<svg xmlns="http://www.w3.org/2000/svg" width="24" height="24" viewBox="0 0 24 24"><path fill="#FFF" fill-rule="evenodd" d="M1 7C1.55228 7 2 7.44772 2 8L2 12C2 12.5523 1.55228 13 1 13 .44772 13 0 12.5523 0 12L0 8C0 7.44772.44772 7 1 7ZM5.5 3C6.05228 3 6.5 3.44772 6.5 4L6.5 16C6.5 16.5523 6.05229 17 5.5 17 4.94772 17 4.5 16.5523 4.5 16L4.5 4C4.5 3.44772 4.94772 3 5.5 3ZM10 0C10.5523 0 11 .44772 11 1L11 19C11 19.5523 10.5523 20 10 20 9.4477 20 9 19.5523 9 19L9 1C9 .44772 9.4477 0 10 0ZM14.5 3C15.0523 3 15.5 3.44772 15.5 4L15.5 16C15.5 16.5523 15.0523 17 14.5 17 13.9477 17 13.5 16.5523 13.5 16L13.5 4C13.5 3.44772 13.9477 3 14.5 3ZM19 7C19.5523 7 20 7.44772 20 8L20 12C20 12.5523 19.5523 13 19 13 18.4477 13 18 12.5523 18 12L18 8C18 7.44772 18.4477 7 19 7Z" transform="translate(2 2)"/></svg>